<svg width="53" height="52" viewBox="0 0 53 52" fill="none" xmlns="http://www.w3.org/2000/svg">
<path d="M45.346 32.9327L35.7544 28.6407C35.3826 28.4797 34.9765 28.414 34.5729 28.4495C34.1693 28.485 33.7809 28.6205 33.4428 28.8438C33.4158 28.8609 33.39 28.8799 33.3656 28.9007L28.3281 33.1947C28.216 33.2631 28.0888 33.3028 27.9577 33.3102C27.8266 33.3176 27.6957 33.2926 27.5766 33.2374C24.2778 31.6449 20.8633 28.2567 19.2708 24.9966C19.2145 24.8784 19.1883 24.748 19.1947 24.6172C19.2011 24.4864 19.2398 24.3592 19.3074 24.2471L23.6136 19.1263C23.6339 19.1019 23.6522 19.0755 23.6705 19.0491C23.8931 18.7115 24.0282 18.3238 24.0637 17.921C24.0991 17.5182 24.0338 17.1129 23.8736 16.7416L19.5735 7.16628C19.3659 6.68131 19.0065 6.27678 18.5494 6.01343C18.0923 5.75009 17.5621 5.64214 17.0385 5.70581C14.4823 6.04283 12.1362 7.29884 10.4384 9.23924C8.74058 11.1796 7.80718 13.6717 7.81252 16.25C7.81252 31.9313 20.5688 44.6875 36.25 44.6875C38.8283 44.6929 41.3204 43.7595 43.2608 42.0617C45.2012 40.3639 46.4572 38.0178 46.7942 35.4616C46.8574 34.9403 46.7506 34.4125 46.4897 33.9569C46.2287 33.5012 45.8276 33.142 45.346 32.9327ZM45.1875 35.2585C44.9007 37.4233 43.8352 39.4095 42.1903 40.8458C40.5454 42.2821 38.4337 43.0701 36.25 43.0625C21.4666 43.0625 9.43752 31.0335 9.43752 16.25C9.42996 14.0663 10.218 11.9546 11.6543 10.3097C13.0906 8.66483 15.0768 7.59936 17.2416 7.31253C17.2741 7.31051 17.3066 7.31051 17.3391 7.31253C17.4994 7.31389 17.6557 7.36264 17.7883 7.45264C17.921 7.54264 18.024 7.66987 18.0846 7.81831L22.3725 17.3936C22.4226 17.5106 22.4444 17.6378 22.4363 17.7648C22.4282 17.8918 22.3903 18.0152 22.3258 18.1249L18.0216 23.2436C18.0013 23.27 17.981 23.2944 17.9627 23.3228C17.7334 23.6735 17.5983 24.0774 17.5706 24.4954C17.5428 24.9135 17.6233 25.3317 17.8042 25.7096C19.5694 29.3232 23.2094 32.9367 26.8636 34.7019C27.2441 34.8817 27.6646 34.9599 28.0843 34.9289C28.504 34.898 28.9085 34.7589 29.2585 34.5252L29.3336 34.4683L34.3772 30.1783C34.4851 30.1124 34.6071 30.0731 34.7332 30.0635C34.8593 30.054 34.9858 30.0745 35.1024 30.1235L44.6919 34.4216C44.8537 34.489 44.9894 34.6068 45.0788 34.7577C45.1681 34.9085 45.2062 35.0842 45.1875 35.2585Z" fill="#14010C"/>
</svg>
