<svg width="21" height="20" viewBox="0 0 21 20" fill="none" xmlns="http://www.w3.org/2000/svg">
<path d="M10.5017 2.07304C11.7013 1.02183 13.2665 0.460324 14.8759 0.503907C16.4852 0.54749 18.0164 1.19285 19.1547 2.30737C20.2921 3.42065 20.9513 4.91766 20.9974 6.49153C21.0435 8.06541 20.4728 9.59692 19.4025 10.7721L10.4996 19.5L1.59891 10.7721C0.527273 9.59631 -0.0439071 8.06349 0.0026365 6.48834C0.0491801 4.9132 0.709916 3.41526 1.84919 2.30206C2.98847 1.18885 4.51985 0.544845 6.12892 0.502255C7.738 0.459665 9.30268 1.02172 10.5017 2.07304ZM17.6681 3.75962C16.9097 3.01769 15.8899 2.58804 14.8182 2.5588C13.7464 2.52955 12.7038 2.90295 11.9044 3.60237L10.5028 4.83364L9.10017 3.6034C8.30403 2.90645 7.26655 2.53266 6.19884 2.55807C5.13114 2.58348 4.11344 3.00619 3.35283 3.74019C2.59223 4.47418 2.14588 5.46431 2.1046 6.50908C2.06333 7.55385 2.43024 8.57477 3.13066 9.36408L10.5007 16.5904L17.8707 9.3651C18.5682 8.57927 18.9352 7.56366 18.8976 6.52328C18.86 5.48289 18.4206 4.49522 17.6681 3.75962Z" fill="#646464"/>
</svg>
