<svg width="714" height="186" viewBox="0 0 714 186" fill="none" xmlns="http://www.w3.org/2000/svg">
<line y1="92.9194" x2="623.363" y2="92.9194" stroke="#14010C"/>
<path d="M713.5 93.4197C713.5 144.204 672.316 185.373 621.513 185.373C570.71 185.373 529.526 144.204 529.526 93.4197C529.526 42.6357 570.71 1.4668 621.513 1.4668C672.316 1.4668 713.5 42.6357 713.5 93.4197Z" stroke="#A78B73"/>
<path d="M557 68.8823H556.5V69.8823H557V68.8823ZM622.094 69.7359C622.29 69.5406 622.29 69.224 622.094 69.0288L618.913 65.8468C618.717 65.6515 618.401 65.6515 618.205 65.8468C618.01 66.0421 618.01 66.3586 618.205 66.5539L621.034 69.3823L618.205 72.2108C618.01 72.406 618.01 72.7226 618.205 72.9179C618.401 73.1131 618.717 73.1131 618.913 72.9179L622.094 69.7359ZM557 69.8823H621.741V68.8823H557V69.8823Z" fill="#14010C"/>
</svg>
