<svg width="401" height="80" viewBox="0 0 401 80" fill="none" xmlns="http://www.w3.org/2000/svg">
<line y1="39.5" x2="360" y2="39.5" stroke="#14010C"/>
<circle cx="361" cy="40" r="39.5" stroke="#A78B73"/>
<path d="M286 25.5H285.5V26.5H286V25.5ZM313.354 26.3536C313.549 26.1583 313.549 25.8417 313.354 25.6464L310.172 22.4645C309.976 22.2692 309.66 22.2692 309.464 22.4645C309.269 22.6597 309.269 22.9763 309.464 23.1716L312.293 26L309.464 28.8284C309.269 29.0237 309.269 29.3403 309.464 29.5355C309.66 29.7308 309.976 29.7308 310.172 29.5355L313.354 26.3536ZM286 26.5H313V25.5H286V26.5Z" fill="#14010C"/>
</svg>
