<svg width="268" height="40" viewBox="0 0 268 40" fill="none" xmlns="http://www.w3.org/2000/svg">
<path d="M233 19.5H232.5V20.5H233V19.5ZM267.354 20.3536C267.549 20.1583 267.549 19.8417 267.354 19.6464L264.172 16.4645C263.976 16.2692 263.66 16.2692 263.464 16.4645C263.269 16.6597 263.269 16.9763 263.464 17.1716L266.293 20L263.464 22.8284C263.269 23.0237 263.269 23.3403 263.464 23.5355C263.66 23.7308 263.976 23.7308 264.172 23.5355L267.354 20.3536ZM233 20.5H267V19.5H233V20.5Z" fill="#343536"/>
<rect x="212.5" y="0.5" width="39" height="39" stroke="#A78B73"/>
<line y1="32.5" x2="267" y2="32.5" stroke="#343536"/>
</svg>
