<svg width="400" height="285" viewBox="0 0 400 285" fill="none" xmlns="http://www.w3.org/2000/svg">
<path d="M284.25 142.5C284.25 220.925 220.73 284.5 142.375 284.5C64.02 284.5 0.5 220.925 0.5 142.5C0.5 64.0751 64.02 0.5 142.375 0.5C220.73 0.5 284.25 64.0751 284.25 142.5Z" stroke="#A78B73"/>
<line x1="37.0898" y1="148.5" x2="399.608" y2="148.5" stroke="#343536"/>
<path d="M361.322 127.5H360.822V128.5H361.322V127.5ZM398.765 128.354C398.96 128.158 398.96 127.842 398.765 127.646L395.583 124.464C395.388 124.269 395.071 124.269 394.876 124.464C394.681 124.66 394.681 124.976 394.876 125.172L397.704 128L394.876 130.828C394.681 131.024 394.681 131.34 394.876 131.536C395.071 131.731 395.388 131.731 395.583 131.536L398.765 128.354ZM361.322 128.5H398.412V127.5H361.322V128.5Z" fill="#343536"/>
</svg>
