<svg width="40" height="40" viewBox="0 0 40 40" fill="none" xmlns="http://www.w3.org/2000/svg">
<path d="M30 36.6666C28.6111 36.6666 27.4306 36.1805 26.4583 35.2083C25.4861 34.236 25 33.0555 25 31.6666C25 31.4721 25.0139 31.2705 25.0417 31.0616C25.0694 30.8527 25.1111 30.6655 25.1667 30.4999L13.4167 23.6666C12.9444 24.0833 12.4167 24.4099 11.8333 24.6466C11.25 24.8833 10.6389 25.001 10 24.9999C8.61111 24.9999 7.43056 24.5138 6.45833 23.5416C5.48611 22.5694 5 21.3888 5 19.9999C5 18.611 5.48611 17.4305 6.45833 16.4583C7.43056 15.486 8.61111 14.9999 10 14.9999C10.6389 14.9999 11.25 15.1183 11.8333 15.3549C12.4167 15.5916 12.9444 15.9177 13.4167 16.3333L25.1667 9.49992C25.1111 9.33325 25.0694 9.14603 25.0417 8.93825C25.0139 8.73047 25 8.52881 25 8.33325C25 6.94436 25.4861 5.76381 26.4583 4.79159C27.4306 3.81936 28.6111 3.33325 30 3.33325C31.3889 3.33325 32.5694 3.81936 33.5417 4.79159C34.5139 5.76381 35 6.94436 35 8.33325C35 9.72214 34.5139 10.9027 33.5417 11.8749C32.5694 12.8471 31.3889 13.3333 30 13.3333C29.3611 13.3333 28.75 13.2155 28.1667 12.9799C27.5833 12.7444 27.0556 12.4177 26.5833 11.9999L14.8333 18.8333C14.8889 18.9999 14.9306 19.1877 14.9583 19.3966C14.9861 19.6055 15 19.8066 15 19.9999C15 20.1944 14.9861 20.396 14.9583 20.6049C14.9306 20.8138 14.8889 21.001 14.8333 21.1666L26.5833 27.9999C27.0556 27.5833 27.5833 27.2571 28.1667 27.0216C28.75 26.786 29.3611 26.6677 30 26.6666C31.3889 26.6666 32.5694 27.1527 33.5417 28.1249C34.5139 29.0971 35 30.2777 35 31.6666C35 33.0555 34.5139 34.236 33.5417 35.2083C32.5694 36.1805 31.3889 36.6666 30 36.6666ZM30 9.99992C30.4722 9.99992 30.8683 9.83992 31.1883 9.51992C31.5083 9.19992 31.6678 8.80436 31.6667 8.33325C31.6667 7.86103 31.5067 7.46492 31.1867 7.14492C30.8667 6.82492 30.4711 6.66547 30 6.66659C29.5278 6.66659 29.1317 6.82659 28.8117 7.14659C28.4917 7.46659 28.3322 7.86214 28.3333 8.33325C28.3333 8.80547 28.4933 9.20159 28.8133 9.52159C29.1333 9.84159 29.5289 10.001 30 9.99992ZM10 21.6666C10.4722 21.6666 10.8683 21.5066 11.1883 21.1866C11.5083 20.8666 11.6678 20.471 11.6667 19.9999C11.6667 19.5277 11.5067 19.1316 11.1867 18.8116C10.8667 18.4916 10.4711 18.3321 10 18.3333C9.52778 18.3333 9.13167 18.4933 8.81167 18.8133C8.49167 19.1333 8.33222 19.5288 8.33333 19.9999C8.33333 20.4721 8.49333 20.8683 8.81333 21.1883C9.13333 21.5083 9.52889 21.6677 10 21.6666ZM30 33.3333C30.4722 33.3333 30.8683 33.1733 31.1883 32.8533C31.5083 32.5333 31.6678 32.1377 31.6667 31.6666C31.6667 31.1944 31.5067 30.7983 31.1867 30.4783C30.8667 30.1583 30.4711 29.9988 30 29.9999C29.5278 29.9999 29.1317 30.1599 28.8117 30.4799C28.4917 30.7999 28.3322 31.1955 28.3333 31.6666C28.3333 32.1388 28.4933 32.5349 28.8133 32.8549C29.1333 33.1749 29.5289 33.3344 30 33.3333Z" fill="#14010C"/>
</svg>
