<svg width="36" height="36" viewBox="0 0 36 36" fill="none" xmlns="http://www.w3.org/2000/svg">
<circle cx="18" cy="18" r="18" fill="#A78B73"/>
<path d="M18.0012 13.7272C15.6365 13.7272 13.729 15.635 13.729 18.0003C13.729 20.3656 15.6365 22.2734 18.0012 22.2734C20.366 22.2734 22.2734 20.3656 22.2734 18.0003C22.2734 15.635 20.366 13.7272 18.0012 13.7272ZM18.0012 20.7784C16.473 20.7784 15.2237 19.5326 15.2237 18.0003C15.2237 16.4681 16.4693 15.2222 18.0012 15.2222C19.5331 15.2222 20.7787 16.4681 20.7787 18.0003C20.7787 19.5326 19.5294 20.7784 18.0012 20.7784ZM23.4446 13.5524C23.4446 14.1065 22.9984 14.5491 22.4481 14.5491C21.8941 14.5491 21.4517 14.1028 21.4517 13.5524C21.4517 13.002 21.8978 12.5557 22.4481 12.5557C22.9984 12.5557 23.4446 13.002 23.4446 13.5524ZM26.2741 14.564C26.2109 13.2289 25.906 12.0462 24.9281 11.0718C23.954 10.0975 22.7716 9.79251 21.4368 9.72557C20.0611 9.64747 15.9376 9.64747 14.5619 9.72557C13.2308 9.78879 12.0484 10.0937 11.0706 11.0681C10.0927 12.0425 9.7915 13.2251 9.72458 14.5603C9.6465 15.9363 9.6465 20.0606 9.72458 21.4367C9.78779 22.7718 10.0927 23.9544 11.0706 24.9288C12.0484 25.9032 13.2271 26.2081 14.5619 26.2751C15.9376 26.3532 20.0611 26.3532 21.4368 26.2751C22.7716 26.2119 23.954 25.9069 24.9281 24.9288C25.9023 23.9544 26.2072 22.7718 26.2741 21.4367C26.3522 20.0606 26.3522 15.94 26.2741 14.564ZM24.4968 22.9131C24.2068 23.642 23.6454 24.2036 22.9129 24.4974C21.816 24.9325 19.2133 24.8321 18.0012 24.8321C16.7891 24.8321 14.1827 24.9288 13.0895 24.4974C12.3608 24.2073 11.7993 23.6458 11.5056 22.9131C11.0706 21.816 11.1709 19.2127 11.1709 18.0003C11.1709 16.7879 11.0743 14.1809 11.5056 13.0875C11.7956 12.3586 12.357 11.797 13.0895 11.5032C14.1864 11.0681 16.7891 11.1685 18.0012 11.1685C19.2133 11.1685 21.8198 11.0718 22.9129 11.5032C23.6417 11.7933 24.2031 12.3549 24.4968 13.0875C24.9319 14.1846 24.8315 16.7879 24.8315 18.0003C24.8315 19.2127 24.9319 21.8197 24.4968 22.9131Z" fill="#F7F7F9"/>
</svg>
