<svg width="109" height="30" viewBox="0 0 109 30" fill="none" xmlns="http://www.w3.org/2000/svg">
<path d="M13.64 29L12.72 24.92H7.48L8.36 20.76H11.6L7.24 0.999998H11.48L17.92 29H13.64ZM0.24 29L5.52 5.48H6.16L7.88 13.6L4.48 29H0.24ZM34.0447 29L33.4447 21.88C33.3647 20.7867 33.1914 19.8933 32.9247 19.2C32.658 18.5067 32.2447 17.9867 31.6847 17.64C31.1514 17.2933 30.3914 17.12 29.4047 17.12H26.8447V13.28H29.2847C30.6714 13.28 31.6714 12.9067 32.2847 12.16C32.9247 11.4133 33.2447 10.4133 33.2447 9.16C33.2447 7.82667 32.8714 6.8 32.1247 6.08C31.4047 5.36 30.3514 5 28.9647 5H26.8447V0.999998H29.4847C31.058 1.02666 32.4314 1.33333 33.6047 1.92C34.778 2.50667 35.6847 3.37333 36.3247 4.52C36.9914 5.64 37.3247 7.05333 37.3247 8.76C37.3247 10.3067 37.0714 11.6133 36.5647 12.68C36.0847 13.72 35.4314 14.5333 34.6047 15.12C35.4314 15.5733 36.0714 16.28 36.5247 17.24C37.0047 18.1733 37.298 19.2 37.4047 20.32L38.0847 29H34.0447ZM20.4847 29V0.999998H24.8047V29H20.4847ZM53.4791 29V16.88H50.2391V12.96H53.4791V0.999998H57.7591V29H53.4791ZM40.6391 29V0.999998H44.9591V12.96H48.1591V16.88H44.9591V29H40.6391ZM61.0316 29V0.999998H65.3516V29H61.0316ZM78.9669 29.2V24.88C79.3935 24.88 79.8202 24.7867 80.2469 24.6C80.7002 24.4133 81.1135 24.1467 81.4869 23.8C81.8869 23.4267 82.2069 23 82.4469 22.52C82.6869 22.0133 82.8069 21.4533 82.8069 20.84V9.2C82.8069 8.69333 82.7135 8.2 82.5269 7.72C82.3669 7.24 82.1135 6.8 81.7669 6.4C81.4469 6 81.0469 5.68 80.5669 5.44C80.1135 5.2 79.5802 5.08 78.9669 5.08V0.799998C80.1669 0.799998 81.2602 1.02667 82.2469 1.48C83.2335 1.93333 84.0869 2.54667 84.8069 3.32C85.5535 4.06667 86.1269 4.90667 86.5269 5.84C86.9269 6.74667 87.1269 7.65333 87.1269 8.56V20.96C87.1269 22.2133 86.9002 23.3467 86.4469 24.36C85.9935 25.3733 85.3802 26.24 84.6069 26.96C83.8602 27.68 82.9935 28.24 82.0069 28.64C81.0202 29.0133 80.0069 29.2 78.9669 29.2ZM76.7669 29.2C75.8069 29.2 74.8469 29.0133 73.8869 28.64C72.9535 28.24 72.0869 27.68 71.2869 26.96C70.4869 26.2133 69.8469 25.3333 69.3669 24.32C68.8869 23.3067 68.6469 22.1867 68.6469 20.96V8.56C68.6469 7.62667 68.8469 6.70667 69.2469 5.8C69.6469 4.86667 70.2069 4.02667 70.9269 3.28C71.6735 2.53333 72.5402 1.93333 73.5269 1.48C74.5135 1.02667 75.6069 0.799998 76.8069 0.799998V5.08C76.1935 5.08 75.6469 5.2 75.1669 5.44C74.7135 5.68 74.3135 6.01333 73.9669 6.44C73.6469 6.84 73.3935 7.28 73.2069 7.76C73.0469 8.24 72.9669 8.72 72.9669 9.2V20.84C72.9669 21.4533 73.0869 22.0133 73.3269 22.52C73.5669 23.0267 73.8735 23.4533 74.2469 23.8C74.6202 24.1467 75.0202 24.4133 75.4469 24.6C75.9002 24.7867 76.3402 24.88 76.7669 24.88V29.2ZM106.127 29L90.4066 3.8V0.999998H94.0066L108.207 23.8V29H106.127ZM90.4066 29V7.96H90.7266L94.7266 14.36V29H90.4066ZM107.887 19.6L103.887 13.16V0.999998H108.207V19.6H107.887Z" fill="#A78B73"/>
</svg>
