<svg width="36" height="36" viewBox="0 0 36 36" fill="none" xmlns="http://www.w3.org/2000/svg">
<circle cx="18" cy="18" r="18" fill="#A78B73"/>
<path fill-rule="evenodd" clip-rule="evenodd" d="M18.8997 22.9614C18.8997 22.9614 19.2306 22.9291 19.4001 22.7696C19.5552 22.6234 19.5498 22.3476 19.5498 22.3476C19.5498 22.3476 19.5292 21.0595 20.2116 20.8694C20.8841 20.6823 21.7476 22.115 22.664 22.6659C23.3563 23.0824 23.8817 22.9912 23.8817 22.9912L26.3306 22.9614C26.3306 22.9614 27.611 22.8922 27.004 22.0097C26.9538 21.9374 26.6498 21.3566 25.1837 20.1636C23.6477 18.9149 23.8539 19.1169 25.7029 16.9565C26.8291 15.6409 27.2793 14.8378 27.1385 14.4943C27.0049 14.1658 26.1763 14.2531 26.1763 14.2531L23.4199 14.268C23.4199 14.268 23.2155 14.2436 23.0639 14.323C22.916 14.4008 22.82 14.5823 22.82 14.5823C22.82 14.5823 22.3843 15.6001 21.8023 16.4661C20.5747 18.2925 20.0843 18.3891 19.8834 18.276C19.4162 18.0111 19.5328 17.2135 19.5328 16.6468C19.5328 14.8763 19.8395 14.1383 18.9365 13.9474C18.637 13.8837 18.4164 13.842 17.6498 13.835C16.6661 13.8263 15.834 13.8381 15.3623 14.0401C15.0485 14.1745 14.8064 14.4747 14.9543 14.492C15.1364 14.5132 15.5488 14.5894 15.7676 14.8503C16.0501 15.1875 16.0402 15.9435 16.0402 15.9435C16.0402 15.9435 16.2025 18.0276 15.6609 18.2862C15.2897 18.4638 14.7804 18.1015 13.6855 16.4441C13.1251 15.5953 12.7019 14.657 12.7019 14.657C12.7019 14.657 12.6203 14.4818 12.4741 14.3874C12.2975 14.2735 12.0509 14.2381 12.0509 14.2381L9.43166 14.2531C9.43166 14.2531 9.03801 14.2625 8.89365 14.4126C8.76542 14.5454 8.88378 14.8212 8.88378 14.8212C8.88378 14.8212 10.9345 19.0265 13.2569 21.146C15.3865 23.0887 17.804 22.9614 17.804 22.9614H18.8997Z" fill="#F7F7F9"/>
</svg>
