<svg width="36" height="36" viewBox="0 0 36 36" fill="none" xmlns="http://www.w3.org/2000/svg">
<circle cx="18" cy="18" r="18" fill="#A78B73"/>
<path fill-rule="evenodd" clip-rule="evenodd" d="M18.0342 26.1904H18.0308C16.6419 26.19 15.2773 25.8432 14.0652 25.1852L9.66602 26.3337L10.8433 22.0541C10.1171 20.8016 9.73497 19.3808 9.73559 17.9252C9.73741 13.3717 13.4601 9.66699 18.0342 9.66699C20.2541 9.66795 22.3377 10.528 23.9044 12.0891C25.4712 13.6501 26.3336 15.7251 26.3327 17.9318C26.3308 22.4843 22.6096 26.1886 18.0342 26.1904ZM14.2693 23.6901L14.5212 23.8389C15.5802 24.4643 16.7941 24.7952 18.0318 24.7957H18.0346C21.8362 24.7957 24.9304 21.7163 24.9319 17.9313C24.9326 16.0971 24.2159 14.3725 22.9136 13.075C21.6114 11.7775 19.8796 11.0626 18.0373 11.062C14.2327 11.062 11.1386 14.141 11.1371 17.9257C11.1365 19.2228 11.5012 20.486 12.1916 21.5789L12.3556 21.8386L11.6588 24.3716L14.2693 23.6901ZM22.215 19.8956C22.1632 19.8095 22.025 19.7579 21.8176 19.6546C21.6103 19.5513 20.5909 19.0521 20.4007 18.9832C20.2107 18.9144 20.0724 18.88 19.9342 19.0865C19.796 19.293 19.3986 19.7579 19.2777 19.8956C19.1567 20.0333 19.0358 20.0506 18.8285 19.9473C18.6211 19.844 17.953 19.6261 17.161 18.923C16.5446 18.3758 16.1284 17.7001 16.0075 17.4935C15.8865 17.2869 15.9946 17.1753 16.0984 17.0724C16.1917 16.9799 16.3058 16.8313 16.4094 16.7108C16.5131 16.5904 16.5476 16.5042 16.6168 16.3666C16.6859 16.2288 16.6513 16.1083 16.5995 16.005C16.5477 15.9017 16.133 14.886 15.9602 14.4728C15.7919 14.0704 15.6209 14.1249 15.4937 14.1186C15.3728 14.1125 15.2345 14.1113 15.0962 14.1113C14.958 14.1113 14.7334 14.1629 14.5433 14.3695C14.3533 14.5761 13.8176 15.0754 13.8176 16.091C13.8176 17.1068 14.5606 18.088 14.6643 18.2257C14.7679 18.3635 16.1264 20.4478 18.2064 21.3417C18.7011 21.5543 19.0873 21.6813 19.3885 21.7764C19.8852 21.9335 20.3373 21.9113 20.6945 21.8581C21.0929 21.7989 21.9213 21.359 22.0941 20.8769C22.2668 20.3948 22.2668 19.9817 22.215 19.8956Z" fill="#F7F7F9"/>
</svg>
