<svg xmlns="http://www.w3.org/2000/svg" xmlns:xlink="http://www.w3.org/1999/xlink" viewBox="0 0 678.85 143.29"><defs><style>.cls-1,.cls-2,.cls-3,.cls-4,.cls-5,.cls-6{stroke:#1d1d1b;stroke-miterlimit:10;stroke-width:0.5px;}.cls-1{fill:url(#Безымянный_градиент_14);}.cls-2{fill:url(#Безымянный_градиент_14-2);}.cls-3{fill:url(#Безымянный_градиент_14-3);}.cls-4{fill:url(#Безымянный_градиент_14-4);}.cls-5{fill:url(#Безымянный_градиент_14-5);}.cls-6{fill:url(#Безымянный_градиент_14-6);}</style><linearGradient id="Безымянный_градиент_14" x1="77.18" y1="171.41" x2="77.18" y2="32.59" gradientUnits="userSpaceOnUse"><stop offset="0.07" stop-color="#dabe83"/><stop offset="0.22" stop-color="#e6c177"/><stop offset="0.38" stop-color="#deba73"/><stop offset="0.62" stop-color="#c8a968"/><stop offset="0.91" stop-color="#a58b56"/><stop offset="1" stop-color="#988150"/></linearGradient><linearGradient id="Безымянный_градиент_14-2" x1="203.21" y1="171.41" x2="203.21" y2="32.59" xlink:href="#Безымянный_градиент_14"/><linearGradient id="Безымянный_градиент_14-3" x1="337.12" y1="171.41" x2="337.12" y2="32.59" xlink:href="#Безымянный_градиент_14"/><linearGradient id="Безымянный_градиент_14-4" x1="445.55" y1="171.41" x2="445.55" y2="32.59" xlink:href="#Безымянный_градиент_14"/><linearGradient id="Безымянный_градиент_14-5" x1="530.11" y1="173.39" x2="530.11" y2="30.61" xlink:href="#Безымянный_градиент_14"/><linearGradient id="Безымянный_градиент_14-6" x1="641.11" y1="171.41" x2="641.11" y2="32.59" xlink:href="#Безымянный_градиент_14"/></defs><g id="Слой_33" data-name="Слой 33"><path class="cls-1" d="M23.58,171.41,69,42.31a7.18,7.18,0,0,0-2.92-3.67A12.06,12.06,0,0,0,61.43,37L46.22,35V32.59H82l48.83,138.82H91.86V169l15.21-2a11.07,11.07,0,0,0,5.49-2.18L71.34,47.66l-24.94,71H82.48a9.7,9.7,0,0,0,.53-6.54L71.16,73.05l2-.8,24.94,70.6-2,.8-7.25-15.08a10.62,10.62,0,0,0-2.48-3.47A9.07,9.07,0,0,0,82.84,123h-38L30,165.07a10.71,10.71,0,0,0,5.66,2l37,2v2.38Z" transform="translate(-23.22 -30.36)"/><path class="cls-2" d="M221.34,32.59a56.34,56.34,0,0,1,11.41,1.19,27.83,27.83,0,0,1,10.53,4.56,24.81,24.81,0,0,1,7.78,9.32q3,6,3,15.47,0,9.72-3,16A25,25,0,0,1,243,88.91a30.79,30.79,0,0,1-11.67,5,67.32,67.32,0,0,1-13.89,1.39l25.83,69.81a5.07,5.07,0,0,0,2.56,1.28l3.45.7,15.22,2v2.38h-35l-28.3-76.15H179.77v63.86a6.89,6.89,0,0,0,2.3,5.65,10.7,10.7,0,0,0,5.66,2.28L203,169v2.38h-61V169l15.21-2a10.7,10.7,0,0,0,5.66-2.28,6.89,6.89,0,0,0,2.3-5.65V46.87a10.38,10.38,0,0,0-2.3-6.65A8.35,8.35,0,0,0,157.13,37l-15.21-2V32.59Zm-41.57,58.3h19.82L195,78.4h16.09l4.6,12.3a27,27,0,0,0,7.79-2.38,21.83,21.83,0,0,0,6.63-5,23.72,23.72,0,0,0,4.69-7.93,31.21,31.21,0,0,0,1.77-10.91,31.56,31.56,0,0,0-2.13-12.1,26.13,26.13,0,0,0-5.57-8.62,22.15,22.15,0,0,0-7.78-5.16A24.08,24.08,0,0,0,212.32,37H179.77Z" transform="translate(-23.22 -30.36)"/><path class="cls-3" d="M270.34,169l15.21-2a10.27,10.27,0,0,0,5.58-2.28,7.49,7.49,0,0,0,2.38-5.65V87.52h-4.95V83.16h4.95V46.87a11.52,11.52,0,0,0-2.38-6.65A8.08,8.08,0,0,0,285.55,37l-15.21-2V32.59H308.2V83.16h38.56a8.23,8.23,0,0,0,5.84-2.58,9.8,9.8,0,0,0,3-6.34l1.77-27.37h2.13V159.31h-2.13L355.6,96.45a9,9,0,0,0-2.91-6.35,8.53,8.53,0,0,0-5.93-2.58H308.2v71.6a6.86,6.86,0,0,0,2.3,5.65,10.7,10.7,0,0,0,5.66,2.28l15.21,2v2.38h-61ZM342.87,32.59h61V35l-15.22,2A8.35,8.35,0,0,0,383,40.22a10.38,10.38,0,0,0-2.3,6.65V159.12a6.89,6.89,0,0,0,2.3,5.65,10.7,10.7,0,0,0,5.66,2.28l15.22,2v2.38H366l-.18-124.54a10.59,10.59,0,0,0-2.21-6.65A8,8,0,0,0,358.08,37l-15.21-2Z" transform="translate(-23.22 -30.36)"/><path class="cls-4" d="M415,169l15.21-2a10.21,10.21,0,0,0,5.57-2.28,7.5,7.5,0,0,0,2.39-5.65V46.87a11.53,11.53,0,0,0-2.39-6.65A8,8,0,0,0,430.25,37L415,35V32.59h61V35l-15.21,2a8.33,8.33,0,0,0-5.66,3.27,10.33,10.33,0,0,0-2.31,6.65V159.12a6.87,6.87,0,0,0,2.31,5.65,10.66,10.66,0,0,0,5.66,2.28l15.21,2v2.38H415Z" transform="translate(-23.22 -30.36)"/><path class="cls-5" d="M530,30.61q25.29,0,38.57,17.55T581.85,102q0,36.3-13.26,53.84T530,173.39q-25.11,0-38.38-17.55T478.37,102q0-36.28,13.27-53.84T530,30.61ZM495.88,102a202,202,0,0,0,1.59,26.08A81.2,81.2,0,0,0,503,149.4a36.16,36.16,0,0,0,10.44,14.38Q519.94,169,530,169t16.72-5.25a36,36,0,0,0,10.53-14.38,81.21,81.21,0,0,0,5.48-21.32A202,202,0,0,0,564.34,102a202.09,202.09,0,0,0-1.59-26.08,81.32,81.32,0,0,0-5.48-21.32,36,36,0,0,0-10.53-14.38Q540.11,35,530,35T513.4,40.22A36.16,36.16,0,0,0,503,54.6a81.31,81.31,0,0,0-5.49,21.32A202.09,202.09,0,0,0,495.88,102Z" transform="translate(-23.22 -30.36)"/><path class="cls-6" d="M580.61,169l15.22-2a10.73,10.73,0,0,0,5.66-2.28,6.89,6.89,0,0,0,2.3-5.65V51.63l-12.74-19h18.57l75,113.24v-101a7.21,7.21,0,0,0-2.3-5.75A9.09,9.09,0,0,0,676.84,37l-32.9-2V32.59h44.58V151.78l13.09,19.63H683L607.5,57.18V159.12a7.19,7.19,0,0,0,2.3,5.75,9.23,9.23,0,0,0,5.66,2.18l32.9,2v2.38H580.61Z" transform="translate(-23.22 -30.36)"/></g></svg>