<svg width="30" height="30" viewBox="0 0 30 30" fill="none" xmlns="http://www.w3.org/2000/svg">
<g id="Frame 320">
<path id="Vector" d="M25.6539 19.7181L20.1203 17.2419C19.9058 17.1491 19.6715 17.1112 19.4387 17.1316C19.2058 17.1521 18.9818 17.2303 18.7867 17.3591C18.7711 17.369 18.7563 17.38 18.7422 17.3919L15.836 19.8693C15.7713 19.9087 15.6979 19.9316 15.6222 19.9359C15.5466 19.9402 15.4711 19.9258 15.4024 19.8939C13.4992 18.9751 11.5293 17.0204 10.6106 15.1396C10.5781 15.0714 10.563 14.9962 10.5667 14.9207C10.5703 14.8452 10.5927 14.7719 10.6317 14.7072L13.116 11.7529C13.1277 11.7388 13.1383 11.7236 13.1488 11.7083C13.2773 11.5136 13.3552 11.2899 13.3757 11.0575C13.3961 10.8251 13.3585 10.5913 13.266 10.3771L10.7852 4.85286C10.6654 4.57307 10.4581 4.33969 10.1944 4.18776C9.93067 4.03583 9.62479 3.97355 9.32267 4.01028C7.84795 4.20472 6.49443 4.92934 5.51493 6.0488C4.53543 7.16826 3.99693 8.606 4.00001 10.0935C4.00001 19.1404 11.3594 26.4997 20.4063 26.4997C21.8937 26.5028 23.3315 25.9643 24.4509 24.9848C25.5704 24.0053 26.295 22.6518 26.4895 21.1771C26.5259 20.8763 26.4643 20.5719 26.3137 20.309C26.1632 20.0461 25.9318 19.8388 25.6539 19.7181ZM25.5625 21.0599C25.397 22.3088 24.7823 23.4547 23.8334 24.2833C22.8844 25.112 21.6661 25.5666 20.4063 25.5622C11.8774 25.5622 4.93751 18.6224 4.93751 10.0935C4.93315 8.83366 5.38778 7.61537 6.21641 6.66639C7.04504 5.71741 8.19094 5.10272 9.43986 4.93723C9.45859 4.93607 9.47738 4.93607 9.49611 4.93723C9.58858 4.93802 9.67876 4.96615 9.75529 5.01807C9.83182 5.06999 9.89128 5.14339 9.92618 5.22903L12.4 10.7532C12.4289 10.8208 12.4415 10.8941 12.4368 10.9674C12.4321 11.0407 12.4103 11.1118 12.3731 11.1751L9.88986 14.1283C9.87814 14.1435 9.86642 14.1575 9.85587 14.174C9.72358 14.3763 9.64566 14.6093 9.62965 14.8504C9.61364 15.0916 9.66007 15.3329 9.76447 15.5509C10.7828 17.6357 12.8828 19.7204 14.991 20.7388C15.2105 20.8425 15.4532 20.8876 15.6953 20.8698C15.9374 20.8519 16.1708 20.7717 16.3727 20.6368L16.416 20.604L19.3258 18.129C19.388 18.091 19.4584 18.0683 19.5312 18.0628C19.6039 18.0573 19.6769 18.0692 19.7442 18.0974L25.2766 20.5771C25.3699 20.6159 25.4482 20.684 25.4998 20.771C25.5513 20.858 25.5733 20.9593 25.5625 21.0599Z" fill="#14010C"/>
</g>
</svg>
