<svg width="30" height="30" viewBox="0 0 30 30" fill="none" xmlns="http://www.w3.org/2000/svg">
  <path d="M25.8727 18.9996L20.3391 16.5234C20.1246 16.4306 19.8903 16.3927 19.6574 16.4131C19.4246 16.4336 19.2005 16.5118 19.0055 16.6406C18.9899 16.6505 18.975 16.6615 18.961 16.6734L16.0547 19.1508C15.99 19.1902 15.9166 19.2131 15.841 19.2174C15.7654 19.2217 15.6898 19.2072 15.6211 19.1754C13.718 18.2566 11.7481 16.3019 10.8293 14.4211C10.7968 14.3529 10.7817 14.2777 10.7854 14.2022C10.7891 14.1267 10.8114 14.0534 10.8504 13.9887L13.3348 11.0344C13.3465 11.0203 13.357 11.0051 13.3676 10.9898C13.496 10.7951 13.574 10.5714 13.5944 10.339C13.6149 10.1066 13.5772 9.87278 13.4848 9.65857L11.0039 4.13435C10.8842 3.85456 10.6768 3.62118 10.4131 3.46925C10.1494 3.31732 9.84354 3.25504 9.54142 3.29177C8.0667 3.48621 6.71318 4.21083 5.73368 5.33029C4.75418 6.44975 4.21568 7.8875 4.21876 9.37498C4.21876 18.4219 11.5781 25.7812 20.625 25.7812C22.1125 25.7843 23.5502 25.2458 24.6697 24.2663C25.7892 23.2868 26.5138 21.9333 26.7082 20.4586C26.7447 20.1578 26.683 19.8534 26.5325 19.5905C26.3819 19.3276 26.1505 19.1203 25.8727 18.9996ZM25.7813 20.3414C25.6158 21.5903 25.0011 22.7362 24.0521 23.5648C23.1031 24.3935 21.8848 24.8481 20.625 24.8437C12.0961 24.8437 5.15626 17.9039 5.15626 9.37498C5.1519 8.11515 5.60653 6.89686 6.43516 5.94788C7.26379 4.9989 8.40969 4.38421 9.65861 4.21873C9.67734 4.21756 9.69613 4.21756 9.71486 4.21873C9.80733 4.21952 9.89751 4.24764 9.97404 4.29956C10.0506 4.35149 10.11 4.42489 10.1449 4.51052L12.6188 10.0347C12.6476 10.1023 12.6602 10.1756 12.6555 10.2489C12.6509 10.3222 12.629 10.3933 12.5918 10.4566L10.1086 13.4097C10.0969 13.425 10.0852 13.439 10.0746 13.4554C9.94233 13.6578 9.86441 13.8907 9.8484 14.1319C9.83239 14.3731 9.87882 14.6144 9.98322 14.8324C11.0016 16.9172 13.1016 19.0019 15.2098 20.0203C15.4293 20.124 15.6719 20.1691 15.914 20.1513C16.1561 20.1334 16.3895 20.0532 16.5914 19.9183L16.6348 19.8855L19.5445 17.4105C19.6068 17.3725 19.6772 17.3498 19.7499 17.3443C19.8226 17.3388 19.8956 17.3507 19.9629 17.3789L25.4953 19.8586C25.5887 19.8974 25.667 19.9655 25.7185 20.0525C25.7701 20.1395 25.7921 20.2408 25.7813 20.3414Z" fill="#14010C" />
  <path d="M15.7519 14.3879C15.7778 14.6628 16.0216 14.8647 16.2966 14.8388L20.7768 14.4171C21.0517 14.3913 21.2536 14.1474 21.2277 13.8725C21.2018 13.5976 20.958 13.3957 20.6831 13.4215L16.7007 13.7964L16.3258 9.81398C16.3 9.53906 16.0561 9.33716 15.7812 9.36304C15.5063 9.38891 15.3044 9.63276 15.3302 9.90769L15.7519 14.3879ZM24.6334 3.43113L15.8646 14.0222L16.6349 14.6599L25.4037 4.06887L24.6334 3.43113Z" fill="#14010C" />
</svg>