<svg width="40" height="40" viewBox="0 0 40 40" fill="none" xmlns="http://www.w3.org/2000/svg">
<path d="M36.0759 4.59855C35.7165 4.29898 35.2832 4.10279 34.8219 4.03078C34.3607 3.95878 33.8886 4.01365 33.4558 4.18957L3.59418 16.3133C3.11164 16.5128 2.70081 16.8551 2.41624 17.2948C2.13168 17.7346 1.98684 18.251 2.00094 18.7755C2.01505 19.3 2.18743 19.8077 2.49522 20.2314C2.803 20.655 3.23162 20.9745 3.72418 21.1474L10.1675 23.3968L13.6592 35.006C13.6659 35.0295 13.6875 35.0446 13.6975 35.0664C13.7335 35.159 13.786 35.2442 13.8525 35.3178C13.9535 35.4313 14.084 35.5143 14.2292 35.5575C14.2459 35.5642 14.2575 35.5793 14.2742 35.5826H14.2842L14.2892 35.5843C14.4181 35.6122 14.5521 35.6053 14.6775 35.5642C14.6909 35.5608 14.7042 35.5608 14.7192 35.5558C14.8396 35.5133 14.9486 35.4433 15.0375 35.3513C15.0475 35.3396 15.0642 35.3379 15.0742 35.3279L20.0959 29.7529L27.4242 35.4603C27.8692 35.8106 28.4175 36 28.9825 36C30.2058 36 31.2609 35.1384 31.5125 33.9366L36.9492 7.08767C37.0414 6.63188 37.0089 6.15945 36.8551 5.72079C36.7013 5.28213 36.4319 4.89368 36.0759 4.59688V4.59855ZM15.4809 25.601L14.3025 31.362L11.8442 23.1856L24.0359 16.7994L15.7075 25.1769C15.5922 25.2928 15.5134 25.4403 15.4809 25.601ZM29.8792 33.5997C29.8479 33.7517 29.7783 33.8931 29.677 34.0102C29.5757 34.1273 29.4462 34.2163 29.3008 34.2685C29.1591 34.3234 29.0055 34.3402 28.8553 34.3173C28.7051 34.2943 28.5634 34.2325 28.4442 34.1378L20.5059 27.9544C20.3399 27.8255 20.1318 27.7643 19.923 27.783C19.7141 27.8016 19.52 27.8987 19.3792 28.0549L15.8842 31.9286L17.0609 26.1843L29.0425 14.1326C29.1828 13.991 29.2682 13.8037 29.2832 13.6044C29.2983 13.405 29.242 13.2069 29.1245 13.0456C29.007 12.8844 28.8361 12.7707 28.6426 12.725C28.4491 12.6794 28.2457 12.7048 28.0692 12.7967L10.7975 21.8447L4.26918 19.5618C4.09609 19.5043 3.94512 19.3939 3.83728 19.2461C3.72945 19.0983 3.67011 18.9204 3.66752 18.7371C3.65921 18.5521 3.70834 18.3692 3.80809 18.2136C3.90784 18.058 4.05326 17.9375 4.22418 17.8688L34.0808 5.74505C34.2339 5.67968 34.402 5.65854 34.5663 5.684C34.7306 5.70947 34.8845 5.78053 35.0109 5.88921C35.1365 5.99143 35.2314 6.12676 35.2849 6.28009C35.3385 6.43341 35.3486 6.59869 35.3142 6.75746L29.8792 33.6014V33.5997Z" fill="#14010C"/>
</svg>
