<svg width="40" height="40" viewBox="0 0 40 40" fill="none" xmlns="http://www.w3.org/2000/svg">
<path fill-rule="evenodd" clip-rule="evenodd" d="M18.5965 4.0166C16.5474 4.2627 14.7979 5.08432 13.3679 6.47207C12.0896 7.71247 11.3425 9.0692 10.9482 10.8658C10.7881 11.595 10.7881 13.2482 10.9482 13.9773C11.3428 15.7758 12.0845 17.12 13.3708 18.3682C14.6516 19.6111 16.0504 20.3379 17.8956 20.7192C18.6503 20.8752 20.3505 20.8745 21.1085 20.7179C22.9615 20.3352 24.3078 19.6381 25.5936 18.3956C26.9146 17.1191 27.6506 15.7949 28.0495 13.9773C28.2095 13.2482 28.2095 11.595 28.0495 10.8658C27.65 9.04543 26.911 7.7151 25.5954 6.44818C25.2021 6.06949 24.6629 5.61937 24.397 5.44788C23.4233 4.81983 22.2636 4.34976 21.1423 4.12868C20.6896 4.03943 19.0189 3.96588 18.5965 4.0166ZM21.0865 6.0354C23.542 6.62855 25.4209 8.45622 26.0808 10.8935C26.2978 11.6949 26.297 13.1361 26.0791 13.9497C25.4263 16.3877 23.5877 18.172 21.0735 18.8075C20.2419 19.0177 18.7558 19.0177 17.9241 18.8075C15.4087 18.1717 13.5357 16.3484 12.9062 13.9226C12.7087 13.1618 12.7087 11.6814 12.9062 10.9206C13.5971 8.25828 15.7948 6.32816 18.6288 5.89474C19.0809 5.82563 20.5711 5.91088 21.0865 6.0354ZM16.1152 22.8321C14.6413 23.0084 13.5665 23.3127 12.2297 23.9325C8.02265 25.8832 5.27278 29.8992 5.02156 34.4593C4.98147 35.1865 4.98753 35.2462 5.1248 35.4833C5.20517 35.6221 5.37964 35.7945 5.5135 35.8675L5.75635 36H19.4941C32.8554 36 33.2383 35.9967 33.4714 35.8814C33.8128 35.7123 34 35.3606 34 34.888C34 32.7733 33.2048 30.232 31.9651 28.3857C31.4386 27.6013 31.0925 27.18 30.3978 26.4776C28.3305 24.3875 25.6245 23.1037 22.6569 22.8048C21.7805 22.7167 16.9116 22.7369 16.1152 22.8321ZM23.2691 24.7628C24.9199 25.0818 26.4058 25.7081 27.6999 26.6302C28.4125 27.138 29.5501 28.2673 30.0834 28.9965C30.5806 29.6762 31.1933 30.836 31.4837 31.6469C31.6923 32.2295 32.0021 33.5929 32.0021 33.9284V34.1237H19.4988H6.99558V33.9284C6.99558 33.5958 7.30449 32.2321 7.51241 31.6469C7.79553 30.8501 8.41154 29.6851 8.91457 28.9953C9.46008 28.2472 10.72 27.0194 11.4625 26.5123C12.5687 25.7566 14.1714 25.0761 15.4063 24.8375C16.4003 24.6454 16.7832 24.6285 19.7566 24.6458C22.1851 24.6598 22.8513 24.682 23.2691 24.7628Z" fill="black"/>
</svg>
