<svg width="40" height="40" viewBox="0 0 40 40" fill="none" xmlns="http://www.w3.org/2000/svg">
<path d="M29.2513 23.2672L24.1309 20.7072C24.0301 20.657 23.9179 20.6342 23.8055 20.6413C23.6931 20.6483 23.5846 20.6848 23.4908 20.7472L20.8282 22.5232C19.3646 21.8213 18.1843 20.6411 17.4824 19.1776L19.2585 16.5152C19.3209 16.4215 19.3574 16.3129 19.3645 16.2006C19.3715 16.0882 19.3487 15.976 19.2985 15.8752L16.7383 10.7552C16.6852 10.6483 16.6033 10.5584 16.5018 10.4957C16.4003 10.4329 16.2832 10.3998 16.1639 10.4C14.6361 10.4 13.1709 11.0069 12.0906 12.0871C11.0104 13.1673 10.4035 14.6324 10.4035 16.16C10.4073 19.7233 11.8246 23.1396 14.3444 25.6593C16.8643 28.179 20.2809 29.5962 23.8445 29.6C25.3722 29.6 26.8374 28.9931 27.9177 27.9129C28.998 26.8327 29.6049 25.3676 29.6049 23.84C29.605 23.7211 29.5719 23.6045 29.5095 23.5034C29.447 23.4022 29.3576 23.3204 29.2513 23.2672ZM23.8445 28.32C20.6202 28.3166 17.529 27.0344 15.2491 24.7547C12.9693 22.475 11.6869 19.384 11.6835 16.16C11.6834 15.0387 12.1037 13.9581 12.8615 13.1317C13.6193 12.3052 14.6595 11.7929 15.7767 11.696L17.9848 16.1136L16.2247 18.76C16.166 18.8473 16.1298 18.9477 16.1192 19.0524C16.1086 19.157 16.1239 19.2627 16.1639 19.36C17.0143 21.3815 18.6225 22.9897 20.6442 23.84C20.7416 23.8805 20.8475 23.8962 20.9525 23.8859C21.0574 23.8756 21.1582 23.8395 21.2459 23.7808L23.8925 22.0208L28.3104 24.2288C28.2131 25.3459 27.7004 26.3858 26.8735 27.1433C26.0467 27.9007 24.9658 28.3206 23.8445 28.32ZM20.0042 4C17.2185 3.99948 14.481 4.72616 12.0623 6.10814C9.64369 7.49013 7.62777 9.47955 6.21397 11.8796C4.80017 14.2797 4.03748 17.0072 4.00135 19.7924C3.96521 22.5777 4.65687 25.3241 6.00792 27.76L4.10378 33.4704C3.99095 33.8087 3.97458 34.1717 4.0565 34.5188C4.13841 34.8659 4.31538 35.1833 4.56756 35.4355C4.81974 35.6876 5.13717 35.8646 5.48428 35.9465C5.83138 36.0284 6.19444 36.012 6.53276 35.8992L12.2436 33.9952C14.3798 35.1788 16.7587 35.8577 19.1979 35.9799C21.6371 36.1022 24.0719 35.6645 26.3158 34.7004C28.5597 33.7363 30.5531 32.2714 32.1433 30.418C33.7335 28.5645 34.8783 26.3716 35.49 24.0074C36.1017 21.6432 36.164 19.1703 35.6723 16.7782C35.1805 14.3862 34.1476 12.1384 32.6528 10.2072C31.1581 8.27594 29.241 6.71247 27.0485 5.63655C24.8561 4.56063 22.4464 4.00082 20.0042 4ZM20.0042 34.72C17.4159 34.7208 14.8732 34.0392 12.6324 32.744C12.535 32.6879 12.4248 32.6582 12.3124 32.6576C12.2433 32.6576 12.1746 32.6689 12.1092 32.6912L6.12793 34.6848C6.01516 34.7224 5.89414 34.7279 5.77844 34.7006C5.66274 34.6733 5.55693 34.6143 5.47286 34.5302C5.3888 34.4462 5.32982 34.3404 5.30251 34.2247C5.27521 34.109 5.28066 33.988 5.31827 33.8752L7.31202 27.8944C7.34078 27.8084 7.35094 27.7173 7.34184 27.6271C7.33274 27.5369 7.30458 27.4497 7.25922 27.3712C5.63622 24.566 4.98441 21.3036 5.40492 18.0902C5.82542 14.8768 7.29472 11.8919 9.58489 9.59871C11.8751 7.30549 14.8581 5.8321 18.0711 5.40712C21.2842 4.98213 24.5477 5.6293 27.3554 7.24823C30.1631 8.86716 32.358 11.3673 33.5996 14.3609C34.8413 17.3545 35.0602 20.6741 34.2224 23.8048C33.3847 26.9355 31.5371 29.7022 28.9663 31.6758C26.3955 33.6494 23.2452 34.7194 20.0042 34.72Z" fill="#14010C"/>
</svg>
