<svg width="155" height="155" viewBox="0 0 155 155" fill="none" xmlns="http://www.w3.org/2000/svg">
<mask id="mask0_683_17662" style="mask-type:alpha" maskUnits="userSpaceOnUse" x="0" y="0" width="155" height="155">
<circle cx="77.5" cy="77.5" r="77.5" fill="#D9D9D9"/>
</mask>
<g mask="url(#mask0_683_17662)">
<g filter="url(#filter0_f_683_17662)">
<circle cx="77.5" cy="77.5" r="77.5" fill="#FBFBFB" fill-opacity="0.6"/>
</g>
<circle cx="77.5" cy="77.5" r="77" stroke="#A78B73"/>
<path d="M58.5653 42.9666C58.5629 42.9943 58.56 43.0336 58.5568 43.0862C58.5484 43.2246 58.5398 43.424 58.5312 43.6851C58.5142 44.2053 58.4982 44.9436 58.4834 45.8723C58.4538 47.7282 58.4291 50.3266 58.4093 53.4222C58.3698 59.6125 58.35 67.7807 58.35 75.95C58.35 84.1193 58.3698 92.2876 58.4093 98.4778C58.4291 101.573 58.4538 104.172 58.4834 106.028C58.4982 106.956 58.5142 107.695 58.5312 108.215C58.5398 108.476 58.5484 108.675 58.5568 108.814C58.5599 108.865 58.5627 108.903 58.5651 108.93C59.0214 110.323 60.7661 111.067 62.2742 110.284L62.2765 110.283C63.5864 109.607 77.7385 101.561 91.6535 93.6128C98.6011 89.6443 105.477 85.7079 110.638 82.7411C113.219 81.2576 115.37 80.0171 116.887 79.1365C117.646 78.696 118.245 78.3466 118.658 78.1022C118.866 77.9797 119.023 77.8855 119.131 77.8201C119.162 77.801 119.187 77.7853 119.207 77.7728C119.494 77.4883 119.646 77.261 119.738 77.035C119.839 76.7883 119.9 76.4668 119.9 75.95C119.9 75.4333 119.839 75.1117 119.738 74.865C119.646 74.6391 119.494 74.4117 119.207 74.1272C119.187 74.1147 119.162 74.099 119.131 74.0799C119.023 74.0146 118.866 73.9203 118.658 73.7978C118.245 73.5535 117.646 73.2041 116.887 72.7636C115.37 71.8829 113.219 70.6425 110.638 69.159C105.477 66.1922 98.6011 62.2557 91.6535 58.2872C77.7385 50.339 63.5864 42.2928 62.2764 41.6169L62.27 41.6135C61.491 41.2043 60.5386 41.1987 59.7865 41.5789C59.1573 41.897 58.753 42.3725 58.5653 42.9666ZM58.5703 42.9202C58.5703 42.9199 58.5697 42.9236 58.5688 42.9319C58.5699 42.9247 58.5704 42.9205 58.5703 42.9202ZM119.143 77.8358L119.148 77.8302L119.143 77.8358L119.143 77.8358ZM58.5703 108.98C58.5704 108.98 58.5699 108.975 58.5688 108.968C58.5697 108.976 58.5703 108.98 58.5703 108.98Z" stroke="#A78B73" stroke-width="2"/>
</g>
<defs>
<filter id="filter0_f_683_17662" x="-4" y="-4" width="163" height="163" filterUnits="userSpaceOnUse" color-interpolation-filters="sRGB">
<feFlood flood-opacity="0" result="BackgroundImageFix"/>
<feBlend mode="normal" in="SourceGraphic" in2="BackgroundImageFix" result="shape"/>
<feGaussianBlur stdDeviation="2" result="effect1_foregroundBlur_683_17662"/>
</filter>
</defs>
</svg>
