<svg width="1053" height="201" viewBox="0 0 1053 201" fill="none" xmlns="http://www.w3.org/2000/svg">
<path d="M215.707 198.587C204.543 198.164 195.754 195.282 188.892 191.217C177.052 184.236 170.84 173.74 167.713 166.176C165.456 160.708 164.797 156.77 164.797 156.77H98.4636C103.602 142.149 117.411 132.363 132.911 132.363H182.08C187.261 132.363 191.9 135.574 193.734 140.417L215.707 198.587Z" fill="#A78B73"/>
<path d="M180.373 98.8455H164.206C161.4 98.8455 158.678 98.3975 156.109 97.5355H156.092L155.949 97.4933C149.627 95.4058 144.607 90.5464 142.308 84.3009L137.305 70.7367L110.456 0H134.567C139.739 0 144.379 3.20301 146.213 8.03711L170.012 70.7367L180.373 98.8455Z" fill="#A78B73"/>
<path d="M108.247 0C103.084 0 98.4523 3.19456 96.6184 8.02021L72.9381 70.424L62.4755 98.8455L51.0917 129.802H51.0156L35.5161 170.824L26 196.026C26.5155 196.009 27.031 195.992 27.5297 195.95C64.6559 192.181 76.9101 154.209 76.9101 154.209L85.9107 129.802L102.002 84.1572L103.963 78.5963L113.926 50.3017L119.656 33.7964L120.265 32.0386L108.247 0Z" fill="#A78B73"/>
<path d="M1043.85 199C1042.81 199 1041.85 198.464 1041.3 197.583L970.452 83.5113C970.156 83.0361 970 82.4878 970 81.9284V71C970 69.3431 971.343 68 973 68H987.167C988.206 68 989.171 68.5377 989.718 69.4213L1052.55 170.952C1052.84 171.426 1053 171.973 1053 172.53V196C1053 197.657 1051.66 199 1050 199H1043.85Z" fill="#A78B73"/>
<path d="M970 199V103.183H971.492L992.755 137.43L992.867 144.558C991.687 175.251 987.201 187.806 970 199Z" fill="#A78B73"/>
<path d="M1051.51 151.091L1030.24 116.844C1031.92 90.013 1036.57 78.9543 1053 68V151.091H1051.51Z" fill="#A78B73"/>
<path d="M970 103.183H971.492L992.755 137.43L992.867 124.143L970 88.4156V103.183Z" fill="#A78B73"/>
<path d="M1051.51 151.091L1030.24 116.844V129.247L1053 166.675V151.091H1051.51Z" fill="#A78B73"/>
<path d="M828.645 182.146V198C828.645 199.657 829.99 201.012 831.643 200.895C835.774 200.604 839.702 199.702 843.426 198.19C848.166 196.317 852.282 193.694 855.774 190.323C859.266 186.826 862.011 182.705 864.006 177.959C866.002 173.214 867 167.968 867 162.224V104.903C867 100.282 866.002 95.7864 864.006 91.4155C862.135 86.9197 859.453 82.9235 855.961 79.4268C852.469 75.93 848.353 73.1826 843.613 71.1845C839.87 69.4623 835.879 68.4386 831.642 68.1135C829.99 67.9867 828.645 69.3431 828.645 71V86.8535C828.645 89.0627 830.465 90.78 832.608 91.3172C833.449 91.5279 834.248 91.8105 835.006 92.1648C837.002 93.0389 838.624 94.3502 839.871 96.0986C841.244 97.722 842.303 99.5329 843.052 101.531C843.8 103.529 844.174 105.652 844.174 107.9V161.475C844.174 163.972 843.676 166.22 842.677 168.218C841.805 170.216 840.556 171.965 838.936 173.463C837.439 174.962 835.755 176.148 833.884 177.023C833.449 177.209 833.013 177.373 832.578 177.513C830.475 178.19 828.645 179.937 828.645 182.146Z" fill="#A78B73"/>
<path d="M804.135 198.19C807.775 199.668 811.453 200.562 815.171 200.875C816.822 201.013 818.168 199.657 818.168 198V182.146C818.168 179.937 816.345 178.175 814.228 177.543C813.737 177.396 813.242 177.223 812.742 177.023C810.995 176.148 809.374 175.024 807.877 173.651C806.381 172.152 805.134 170.404 804.135 168.406C803.263 166.283 802.826 163.972 802.826 161.475V107.9C802.826 105.652 803.2 103.529 803.948 101.531C804.697 99.5329 805.695 97.722 806.942 96.0986C808.315 94.4752 809.935 93.2262 811.806 92.3521C812.638 91.9357 813.502 91.6061 814.399 91.3632C816.532 90.7859 818.355 89.0627 818.355 86.8535V71C818.355 69.3431 817.01 67.987 815.358 68.113C811.1 68.4375 807.048 69.4614 803.2 71.1845C798.586 73.1826 794.531 75.93 791.039 79.4268C787.547 82.9235 784.802 86.9197 782.806 91.4155C780.936 95.7864 780 100.282 780 104.903V162.224C780 167.719 781.06 172.839 783.181 177.585C785.426 182.33 788.356 186.451 791.974 189.948C795.592 193.445 799.645 196.192 804.135 198.19Z" fill="#A78B73"/>
<path d="M519.434 143.419H530.283C531.746 176.691 537.004 188.419 553 199V73C553 70.2386 550.761 68 548 68H533.283C531.626 68 530.283 69.3431 530.283 71V122.833H519.434C518.33 122.833 517.434 123.728 517.434 124.833V141.419C517.434 142.523 518.33 143.419 519.434 143.419Z" fill="#A78B73"/>
<path d="M472 73V199C489.306 187.784 494.716 176.152 494.717 143.419H505.566C506.67 143.419 507.566 142.523 507.566 141.419V124.833C507.566 123.728 506.67 122.833 505.566 122.833H494.717V71C494.717 69.3431 493.374 68 491.717 68H477C474.239 68 472 70.2386 472 73Z" fill="#A78B73"/>
<path d="M288 199V73C288 70.2386 290.239 68 293 68H296.438L310.459 89.3343V144.354C310.499 179.9 303.181 187.994 288 199Z" fill="#A78B73"/>
<path d="M345.436 165.689C345.068 160.698 344.271 156.643 343.043 153.524C341.939 150.405 340.159 148.097 337.705 146.6C335.25 145.103 331.875 144.354 327.58 144.354H320.032V123.956H327.58C333.593 123.956 337.95 122.334 340.65 119.09C343.473 115.721 344.884 111.604 344.884 106.739C344.884 101.124 343.227 96.82 339.914 93.8257C336.723 90.8314 332.305 89.3343 326.659 89.3343H320.032L312.469 89.2662L298.125 68H320.032H328.868C336.477 68 343.043 69.4971 348.566 72.4914C354.089 75.3609 358.323 79.4781 361.268 84.8429C364.336 90.2076 365.87 96.6953 365.87 104.306C365.87 111.168 364.705 117.031 362.373 121.897C360.164 126.763 357.157 130.693 353.352 133.687C357.157 135.933 360.102 139.426 362.189 144.167C364.275 148.783 365.502 153.524 365.87 158.39L369 199C351.49 191.53 345.935 184.502 345.436 165.689Z" fill="#A78B73"/>
<path d="M656 115.636V190.494C656 195.192 659.788 199 664.462 199H678V139.455L656 115.636Z" fill="#A78B73"/>
<path d="M656 68V110.532L678 134.351V78.2078C678 72.5702 673.454 68 667.846 68H656Z" fill="#A78B73"/>
<line x1="288" y1="48.5" x2="1053" y2="48.5" stroke="#A78B73"/>
<path d="M285 28.8098L298.12 0H301.113L314.233 28.8098H311.035L298.981 1.76975H300.211L288.157 28.8098H285ZM290.166 21.1135L291.068 18.6441H307.755L308.657 21.1135H290.166ZM330.146 29.0156C328.288 29.0156 326.607 28.5903 325.104 27.7397C323.6 26.8617 322.398 25.6133 321.496 23.9944C320.621 22.3482 320.184 20.3452 320.184 17.9855C320.184 15.6259 320.621 13.6366 321.496 12.0178C322.37 10.3715 323.559 9.1231 325.063 8.27253C326.566 7.42195 328.261 6.99667 330.146 6.99667C332.196 6.99667 334.028 7.46311 335.64 8.396C337.28 9.30145 338.565 10.591 339.494 12.2647C340.424 13.911 340.888 15.8179 340.888 17.9855C340.888 20.1806 340.424 22.1012 339.494 23.7475C338.565 25.3938 337.28 26.6834 335.64 27.6162C334.028 28.5491 332.196 29.0156 330.146 29.0156ZM319.036 36.7942V7.20245H321.824V13.7052L321.537 18.0267L321.947 22.3893V36.7942H319.036ZM329.941 26.4227C331.472 26.4227 332.839 26.0797 334.041 25.3938C335.244 24.6804 336.201 23.6926 336.911 22.4305C337.622 21.1409 337.977 19.6593 337.977 17.9855C337.977 16.3118 337.622 14.8439 336.911 13.5818C336.201 12.3196 335.244 11.3319 334.041 10.6185C332.839 9.90508 331.472 9.54839 329.941 9.54839C328.411 9.54839 327.031 9.90508 325.801 10.6185C324.598 11.3319 323.641 12.3196 322.931 13.5818C322.247 14.8439 321.906 16.3118 321.906 17.9855C321.906 19.6593 322.247 21.1409 322.931 22.4305C323.641 23.6926 324.598 24.6804 325.801 25.3938C327.031 26.0797 328.411 26.4227 329.941 26.4227ZM342.856 28.8098L351.958 16.9566L351.917 18.3971L343.266 7.20245H346.546L353.639 16.4627L352.409 16.4216L359.502 7.20245H362.7L353.967 18.5206L354.008 16.9566L363.192 28.8098H359.871L352.368 18.9321L353.516 19.0968L346.136 28.8098H342.856ZM367.963 28.8098V7.20245H370.874V24.3649L385.265 7.20245H387.848V28.8098H384.937V11.6062L370.587 28.8098H367.963ZM400.29 28.8098V8.97219L401.028 9.75417H392.131V7.20245H411.36V9.75417H402.463L403.201 8.97219V28.8098H400.29ZM423.793 29.0156C421.551 29.0156 419.583 28.5491 417.889 27.6162C416.194 26.6559 414.868 25.3526 413.912 23.7063C412.955 22.0326 412.477 20.1257 412.477 17.9855C412.477 15.8454 412.928 13.9522 413.83 12.3059C414.759 10.6596 416.016 9.37004 417.602 8.43716C419.214 7.47683 421.018 6.99667 423.014 6.99667C425.036 6.99667 426.827 7.46311 428.385 8.396C429.97 9.30145 431.214 10.591 432.116 12.2647C433.018 13.911 433.469 15.8179 433.469 17.9855C433.469 18.1227 433.455 18.2736 433.428 18.4383C433.428 18.5755 433.428 18.7264 433.428 18.891H414.691V16.7097H431.87L430.722 17.574C430.722 16.01 430.38 14.6244 429.697 13.4171C429.041 12.1824 428.139 11.2221 426.991 10.5362C425.843 9.85021 424.517 9.50723 423.014 9.50723C421.538 9.50723 420.212 9.85021 419.037 10.5362C417.861 11.2221 416.946 12.1824 416.29 13.4171C415.634 14.6518 415.306 16.0649 415.306 17.6563V18.109C415.306 19.7553 415.661 21.2095 416.372 22.4716C417.11 23.7063 418.121 24.6804 419.406 25.3938C420.718 26.0797 422.207 26.4227 423.875 26.4227C425.187 26.4227 426.403 26.1895 427.524 25.723C428.672 25.2566 429.656 24.5432 430.476 23.5829L432.116 25.4761C431.159 26.6285 429.956 27.5065 428.508 28.1101C427.086 28.7138 425.515 29.0156 423.793 29.0156ZM455.697 28.8098L446.841 18.109L449.26 16.6685L459.141 28.8098H455.697ZM439.912 28.8098V7.20245H442.823V28.8098H439.912ZM441.921 19.1791V16.6685H448.85V19.1791H441.921ZM449.506 18.3148L446.8 17.9032L455.369 7.20245H458.526L449.506 18.3148ZM467.395 28.8098V8.97219L468.133 9.75417H459.236V7.20245H478.465V9.75417H469.568L470.306 8.97219V28.8098H467.395ZM483.043 37C482.031 37 481.061 36.8354 480.132 36.5061C479.23 36.1769 478.451 35.683 477.795 35.0245L479.148 32.8432C479.694 33.3645 480.282 33.7623 480.911 34.0367C481.567 34.3385 482.291 34.4894 483.084 34.4894C484.04 34.4894 484.86 34.2151 485.544 33.6663C486.254 33.145 486.924 32.2121 487.553 30.8676L488.947 27.6986L489.275 27.2458L498.13 7.20245H501L490.218 31.4027C489.616 32.802 488.947 33.9132 488.209 34.7364C487.498 35.5595 486.719 36.1357 485.872 36.465C485.024 36.8217 484.081 37 483.043 37ZM488.783 29.4271L478.861 7.20245H481.895L490.669 27.04L488.783 29.4271ZM516.647 29.0156C514.788 29.0156 513.107 28.5903 511.604 27.7397C510.1 26.8617 508.898 25.6133 507.996 23.9944C507.121 22.3482 506.684 20.3452 506.684 17.9855C506.684 15.6259 507.121 13.6366 507.996 12.0178C508.87 10.3715 510.059 9.1231 511.563 8.27253C513.066 7.42195 514.761 6.99667 516.647 6.99667C518.697 6.99667 520.528 7.46311 522.141 8.396C523.781 9.30145 525.065 10.591 525.995 12.2647C526.924 13.911 527.388 15.8179 527.388 17.9855C527.388 20.1806 526.924 22.1012 525.995 23.7475C525.065 25.3938 523.781 26.6834 522.141 27.6162C520.528 28.5491 518.697 29.0156 516.647 29.0156ZM505.536 36.7942V7.20245H508.324V13.7052L508.037 18.0267L508.447 22.3893V36.7942H505.536ZM516.442 26.4227C517.972 26.4227 519.339 26.0797 520.542 25.3938C521.744 24.6804 522.701 23.6926 523.412 22.4305C524.122 21.1409 524.478 19.6593 524.478 17.9855C524.478 16.3118 524.122 14.8439 523.412 13.5818C522.701 12.3196 521.744 11.3319 520.542 10.6185C519.339 9.90508 517.972 9.54839 516.442 9.54839C514.911 9.54839 513.531 9.90508 512.301 10.6185C511.098 11.3319 510.141 12.3196 509.431 13.5818C508.747 14.8439 508.406 16.3118 508.406 17.9855C508.406 19.6593 508.747 21.1409 509.431 22.4305C510.141 23.6926 511.098 24.6804 512.301 25.3938C513.531 26.0797 514.911 26.4227 516.442 26.4227ZM533.643 28.8098V7.20245H536.554V16.7508H550.125V7.20245H553.036V28.8098H550.125V19.2614H536.554V28.8098H533.643ZM570.165 29.0156C568.088 29.0156 566.216 28.5491 564.548 27.6162C562.909 26.6559 561.61 25.3526 560.654 23.7063C559.697 22.0326 559.219 20.1257 559.219 17.9855C559.219 15.8179 559.697 13.911 560.654 12.2647C561.61 10.6185 562.909 9.32889 564.548 8.396C566.188 7.46311 568.061 6.99667 570.165 6.99667C572.297 6.99667 574.183 7.46311 575.823 8.396C577.491 9.32889 578.789 10.6185 579.718 12.2647C580.675 13.911 581.153 15.8179 581.153 17.9855C581.153 20.1257 580.675 22.0326 579.718 23.7063C578.789 25.3526 577.491 26.6559 575.823 27.6162C574.156 28.5491 572.27 29.0156 570.165 29.0156ZM570.165 26.4227C571.723 26.4227 573.104 26.0797 574.306 25.3938C575.509 24.6804 576.452 23.6926 577.135 22.4305C577.846 21.1409 578.201 19.6593 578.201 17.9855C578.201 16.2844 577.846 14.8027 577.135 13.5406C576.452 12.2785 575.509 11.3044 574.306 10.6185C573.104 9.90508 571.737 9.54839 570.206 9.54839C568.676 9.54839 567.309 9.90508 566.106 10.6185C564.904 11.3044 563.947 12.2785 563.237 13.5406C562.526 14.8027 562.171 16.2844 562.171 17.9855C562.171 19.6593 562.526 21.1409 563.237 22.4305C563.947 23.6926 564.904 24.6804 566.106 25.3938C567.309 26.0797 568.662 26.4227 570.165 26.4227ZM586.094 18.9321V16.3804H596.836V18.9321H586.094ZM612.85 29.0156C610.719 29.0156 608.805 28.5491 607.111 27.6162C605.443 26.6559 604.131 25.3526 603.175 23.7063C602.218 22.0326 601.74 20.1257 601.74 17.9855C601.74 15.8179 602.218 13.911 603.175 12.2647C604.131 10.6185 605.443 9.32889 607.111 8.396C608.805 7.46311 610.719 6.99667 612.85 6.99667C614.682 6.99667 616.335 7.35336 617.811 8.06674C619.287 8.78013 620.449 9.85021 621.296 11.277L619.123 12.7586C618.385 11.6611 617.47 10.8517 616.376 10.3304C615.283 9.80905 614.094 9.54839 612.809 9.54839C611.279 9.54839 609.899 9.90508 608.669 10.6185C607.439 11.3044 606.468 12.2785 605.758 13.5406C605.047 14.8027 604.692 16.2844 604.692 17.9855C604.692 19.6867 605.047 21.1683 605.758 22.4305C606.468 23.6926 607.439 24.6804 608.669 25.3938C609.899 26.0797 611.279 26.4227 612.809 26.4227C614.094 26.4227 615.283 26.162 616.376 25.6407C617.47 25.1194 618.385 24.3237 619.123 23.2536L621.296 24.7353C620.449 26.1346 619.287 27.2047 617.811 27.9455C616.335 28.6589 614.682 29.0156 612.85 29.0156ZM630.633 28.8098V8.97219L631.371 9.75417H622.474V7.20245H641.703V9.75417H632.806L633.544 8.97219V28.8098H630.633ZM657.023 29.0156C655.164 29.0156 653.483 28.5903 651.98 27.7397C650.477 26.8617 649.274 25.6133 648.372 23.9944C647.498 22.3482 647.06 20.3452 647.06 17.9855C647.06 15.6259 647.498 13.6366 648.372 12.0178C649.247 10.3715 650.436 9.1231 651.939 8.27253C653.443 7.42195 655.137 6.99667 657.023 6.99667C659.073 6.99667 660.904 7.46311 662.517 8.396C664.157 9.30145 665.442 10.591 666.371 12.2647C667.3 13.911 667.765 15.8179 667.765 17.9855C667.765 20.1806 667.3 22.1012 666.371 23.7475C665.442 25.3938 664.157 26.6834 662.517 27.6162C660.904 28.5491 659.073 29.0156 657.023 29.0156ZM645.912 36.7942V7.20245H648.7V13.7052L648.413 18.0267L648.823 22.3893V36.7942H645.912ZM656.818 26.4227C658.349 26.4227 659.715 26.0797 660.918 25.3938C662.121 24.6804 663.077 23.6926 663.788 22.4305C664.499 21.1409 664.854 19.6593 664.854 17.9855C664.854 16.3118 664.499 14.8439 663.788 13.5818C663.077 12.3196 662.121 11.3319 660.918 10.6185C659.715 9.90508 658.349 9.54839 656.818 9.54839C655.287 9.54839 653.907 9.90508 652.677 10.6185C651.475 11.3319 650.518 12.3196 649.807 13.5818C649.124 14.8439 648.782 16.3118 648.782 17.9855C648.782 19.6593 649.124 21.1409 649.807 22.4305C650.518 23.6926 651.475 24.6804 652.677 25.3938C653.907 26.0797 655.287 26.4227 656.818 26.4227ZM682.873 29.0156C680.796 29.0156 678.924 28.5491 677.256 27.6162C675.616 26.6559 674.318 25.3526 673.361 23.7063C672.405 22.0326 671.926 20.1257 671.926 17.9855C671.926 15.8179 672.405 13.911 673.361 12.2647C674.318 10.6185 675.616 9.32889 677.256 8.396C678.896 7.46311 680.769 6.99667 682.873 6.99667C685.005 6.99667 686.891 7.46311 688.531 8.396C690.199 9.32889 691.497 10.6185 692.426 12.2647C693.383 13.911 693.861 15.8179 693.861 17.9855C693.861 20.1257 693.383 22.0326 692.426 23.7063C691.497 25.3526 690.199 26.6559 688.531 27.6162C686.864 28.5491 684.978 29.0156 682.873 29.0156ZM682.873 26.4227C684.431 26.4227 685.812 26.0797 687.014 25.3938C688.217 24.6804 689.16 23.6926 689.843 22.4305C690.554 21.1409 690.909 19.6593 690.909 17.9855C690.909 16.2844 690.554 14.8027 689.843 13.5406C689.16 12.2785 688.217 11.3044 687.014 10.6185C685.812 9.90508 684.445 9.54839 682.914 9.54839C681.384 9.54839 680.017 9.90508 678.814 10.6185C677.612 11.3044 676.655 12.2785 675.944 13.5406C675.234 14.8027 674.878 16.2844 674.878 17.9855C674.878 19.6593 675.234 21.1409 675.944 22.4305C676.655 23.6926 677.612 24.6804 678.814 25.3938C680.017 26.0797 681.37 26.4227 682.873 26.4227ZM700.083 28.8098V7.20245H702.994V24.3649L717.385 7.20245H719.968V28.8098H717.057V11.6062L702.707 28.8098H700.083ZM732.411 28.8098V8.97219L733.149 9.75417H724.252V7.20245H743.481V9.75417H734.584L735.322 8.97219V28.8098H732.411ZM755.914 29.0156C753.673 29.0156 751.705 28.5491 750.01 27.6162C748.316 26.6559 746.99 25.3526 746.033 23.7063C745.077 22.0326 744.598 20.1257 744.598 17.9855C744.598 15.8454 745.049 13.9522 745.951 12.3059C746.881 10.6596 748.138 9.37004 749.723 8.43716C751.336 7.47683 753.14 6.99667 755.135 6.99667C757.158 6.99667 758.948 7.46311 760.506 8.396C762.091 9.30145 763.335 10.591 764.237 12.2647C765.139 13.911 765.59 15.8179 765.59 17.9855C765.59 18.1227 765.577 18.2736 765.549 18.4383C765.549 18.5755 765.549 18.7264 765.549 18.891H746.812V16.7097H763.991L762.843 17.574C762.843 16.01 762.501 14.6244 761.818 13.4171C761.162 12.1824 760.26 11.2221 759.112 10.5362C757.964 9.85021 756.639 9.50723 755.135 9.50723C753.659 9.50723 752.334 9.85021 751.158 10.5362C749.983 11.2221 749.067 12.1824 748.411 13.4171C747.755 14.6518 747.427 16.0649 747.427 17.6563V18.109C747.427 19.7553 747.783 21.2095 748.493 22.4716C749.231 23.7063 750.243 24.6804 751.527 25.3938C752.839 26.0797 754.329 26.4227 755.996 26.4227C757.308 26.4227 758.525 26.1895 759.645 25.723C760.793 25.2566 761.777 24.5432 762.597 23.5829L764.237 25.4761C763.281 26.6285 762.078 27.5065 760.629 28.1101C759.208 28.7138 757.636 29.0156 755.914 29.0156ZM767.657 28.7686L767.862 26.2581C768.054 26.2855 768.231 26.3267 768.395 26.3815C768.587 26.409 768.751 26.4227 768.887 26.4227C769.762 26.4227 770.459 26.0934 770.978 25.4349C771.525 24.7764 771.935 23.8984 772.208 22.8009C772.482 21.7034 772.673 20.4687 772.782 19.0968C772.891 17.6974 772.987 16.2981 773.069 14.8988L773.438 7.20245H789.223V28.8098H786.312V8.88988L787.05 9.75417H775.324L776.021 8.84872L775.693 15.1046C775.611 16.9703 775.461 18.7538 775.242 20.455C775.051 22.1561 774.736 23.6515 774.299 24.941C773.889 26.2306 773.315 27.2458 772.577 27.9867C771.839 28.7 770.896 29.0567 769.748 29.0567C769.42 29.0567 769.079 29.0293 768.723 28.9744C768.395 28.9195 768.04 28.8509 767.657 28.7686ZM806.764 14.8165C809.47 14.8439 811.52 15.4475 812.914 16.6274C814.335 17.8072 815.046 19.5083 815.046 21.7308C815.046 24.0356 814.281 25.8053 812.75 27.04C811.247 28.2748 809.06 28.8784 806.19 28.8509L797.498 28.8098V7.20245H800.409V14.7342L806.764 14.8165ZM806.026 26.6285C808.021 26.6559 809.525 26.2581 810.536 25.4349C811.575 24.5844 812.094 23.3496 812.094 21.7308C812.094 20.112 811.588 18.9321 810.577 18.1913C809.566 17.4231 808.049 17.0252 806.026 16.9978L800.409 16.9155V26.5462L806.026 26.6285ZM820.601 28.8098V7.20245H823.512V16.7508H837.083V7.20245H839.994V28.8098H837.083V19.2614H823.512V28.8098H820.601ZM861.632 28.8098V24.0356L861.509 23.2536V15.2692C861.509 13.4309 860.989 12.0178 859.951 11.03C858.939 10.0423 857.422 9.54839 855.4 9.54839C854.006 9.54839 852.68 9.78161 851.423 10.2481C850.166 10.7145 849.1 11.3319 848.225 12.1001L846.913 9.9188C848.006 8.98591 849.318 8.27253 850.849 7.77865C852.38 7.25733 853.992 6.99667 855.687 6.99667C858.475 6.99667 860.62 7.69633 862.124 9.09566C863.654 10.4676 864.42 12.5666 864.42 15.3927V28.8098H861.632ZM854.211 29.0156C852.598 29.0156 851.19 28.7549 849.988 28.2336C848.813 27.6848 847.911 26.944 847.282 26.0111C846.653 25.0508 846.339 23.9533 846.339 22.7186C846.339 21.5936 846.599 20.5784 847.118 19.673C847.665 18.7401 848.539 17.9993 849.742 17.4505C850.972 16.8743 852.612 16.5862 854.662 16.5862H862.083V18.7675H854.744C852.667 18.7675 851.218 19.1379 850.398 19.8788C849.605 20.6196 849.209 21.5387 849.209 22.6363C849.209 23.871 849.687 24.8587 850.644 25.5996C851.601 26.3404 852.94 26.7108 854.662 26.7108C856.302 26.7108 857.709 26.3404 858.885 25.5996C860.087 24.8313 860.962 23.7338 861.509 22.307L862.165 24.3237C861.618 25.7505 860.661 26.8891 859.295 27.7397C857.955 28.5903 856.261 29.0156 854.211 29.0156ZM886.068 28.8098V21.0311L886.601 21.6485H879.303C876.542 21.6485 874.383 21.0449 872.825 19.8376C871.267 18.6303 870.488 16.8743 870.488 14.5695C870.488 12.1001 871.321 10.2618 872.989 9.05451C874.656 7.8198 876.884 7.20245 879.672 7.20245H888.733V28.8098H886.068ZM870.324 28.8098L876.228 20.4961H879.262L873.481 28.8098H870.324ZM886.068 20.1669V8.88988L886.601 9.75417H879.754C877.758 9.75417 876.2 10.1383 875.08 10.9066C873.986 11.6748 873.44 12.9233 873.44 14.6518C873.44 17.8621 875.476 19.4672 879.549 19.4672H886.601L886.068 20.1669ZM907.763 28.8098V7.20245H923.015V9.75417H909.936L910.674 9.01335V28.8098H907.763ZM938.335 29.0156C936.477 29.0156 934.796 28.5903 933.292 27.7397C931.789 26.8617 930.586 25.6133 929.684 23.9944C928.81 22.3482 928.372 20.3452 928.372 17.9855C928.372 15.6259 928.81 13.6366 929.684 12.0178C930.559 10.3715 931.748 9.1231 933.251 8.27253C934.755 7.42195 936.449 6.99667 938.335 6.99667C940.385 6.99667 942.216 7.46311 943.829 8.396C945.469 9.30145 946.754 10.591 947.683 12.2647C948.612 13.911 949.077 15.8179 949.077 17.9855C949.077 20.1806 948.612 22.1012 947.683 23.7475C946.754 25.3938 945.469 26.6834 943.829 27.6162C942.216 28.5491 940.385 29.0156 938.335 29.0156ZM927.224 36.7942V7.20245H930.012V13.7052L929.725 18.0267L930.135 22.3893V36.7942H927.224ZM938.13 26.4227C939.661 26.4227 941.028 26.0797 942.23 25.3938C943.433 24.6804 944.389 23.6926 945.1 22.4305C945.811 21.1409 946.166 19.6593 946.166 17.9855C946.166 16.3118 945.811 14.8439 945.1 13.5818C944.389 12.3196 943.433 11.3319 942.23 10.6185C941.028 9.90508 939.661 9.54839 938.13 9.54839C936.6 9.54839 935.219 9.90508 933.989 10.6185C932.787 11.3319 931.83 12.3196 931.119 13.5818C930.436 14.8439 930.094 16.3118 930.094 17.9855C930.094 19.6593 930.436 21.1409 931.119 22.4305C931.83 23.6926 932.787 24.6804 933.989 25.3938C935.219 26.0797 936.6 26.4227 938.13 26.4227ZM955.097 37C954.086 37 953.116 36.8354 952.186 36.5061C951.284 36.1769 950.505 35.683 949.849 35.0245L951.202 32.8432C951.749 33.3645 952.337 33.7623 952.965 34.0367C953.621 34.3385 954.346 34.4894 955.138 34.4894C956.095 34.4894 956.915 34.2151 957.598 33.6663C958.309 33.145 958.979 32.2121 959.607 30.8676L961.001 27.6986L961.329 27.2458L970.185 7.20245H973.055L962.272 31.4027C961.671 32.802 961.001 33.9132 960.263 34.7364C959.552 35.5595 958.774 36.1357 957.926 36.465C957.079 36.8217 956.136 37 955.097 37ZM960.837 29.4271L950.915 7.20245H953.949L962.723 27.04L960.837 29.4271ZM977.592 28.8098V7.20245H996.944V28.8098H994.033V8.97219L994.771 9.75417H979.765L980.503 8.97219V28.8098H977.592ZM1005.22 28.8098V7.20245H1024.57V28.8098H1021.66V8.97219L1022.4 9.75417H1007.39L1008.13 8.97219V28.8098H1005.22ZM1046.21 28.8098V24.0356L1046.09 23.2536V15.2692C1046.09 13.4309 1045.57 12.0178 1044.53 11.03C1043.52 10.0423 1042 9.54839 1039.98 9.54839C1038.59 9.54839 1037.26 9.78161 1036 10.2481C1034.75 10.7145 1033.68 11.3319 1032.81 12.1001L1031.49 9.9188C1032.59 8.98591 1033.9 8.27253 1035.43 7.77865C1036.96 7.25733 1038.57 6.99667 1040.27 6.99667C1043.06 6.99667 1045.2 7.69633 1046.7 9.09566C1048.23 10.4676 1049 12.5666 1049 15.3927V28.8098H1046.21ZM1038.79 29.0156C1037.18 29.0156 1035.77 28.7549 1034.57 28.2336C1033.39 27.6848 1032.49 26.944 1031.86 26.0111C1031.23 25.0508 1030.92 23.9533 1030.92 22.7186C1030.92 21.5936 1031.18 20.5784 1031.7 19.673C1032.24 18.7401 1033.12 17.9993 1034.32 17.4505C1035.55 16.8743 1037.19 16.5862 1039.24 16.5862H1046.66V18.7675H1039.32C1037.25 18.7675 1035.8 19.1379 1034.98 19.8788C1034.19 20.6196 1033.79 21.5387 1033.79 22.6363C1033.79 23.871 1034.27 24.8587 1035.22 25.5996C1036.18 26.3404 1037.52 26.7108 1039.24 26.7108C1040.88 26.7108 1042.29 26.3404 1043.47 25.5996C1044.67 24.8313 1045.54 23.7338 1046.09 22.307L1046.75 24.3237C1046.2 25.7505 1045.24 26.8891 1043.88 27.7397C1042.54 28.5903 1040.84 29.0156 1038.79 29.0156Z" fill="#A78B73"/>
</svg>
