<svg width="40" height="40" viewBox="0 0 40 40" fill="none" xmlns="http://www.w3.org/2000/svg">
<path d="M23.206 19.666L18.714 17.57C18.322 17.388 18 17.592 18 18.026V21.974C18 22.408 18.322 22.612 18.714 22.43L23.204 20.334C23.598 20.15 23.598 19.85 23.206 19.666ZM20 0.799988C9.396 0.799988 0.799999 9.39599 0.799999 20C0.799999 30.604 9.396 39.2 20 39.2C30.604 39.2 39.2 30.604 39.2 20C39.2 9.39599 30.604 0.799988 20 0.799988ZM20 27.8C10.172 27.8 10 26.914 10 20C10 13.086 10.172 12.2 20 12.2C29.828 12.2 30 13.086 30 20C30 26.914 29.828 27.8 20 27.8Z" fill="#A78B73"/>
</svg>
