<svg width="40" height="40" viewBox="0 0 40 40" fill="none" xmlns="http://www.w3.org/2000/svg">
<path d="M37.5152 19.1888C37.5184 19.1888 37.5208 19.1888 37.524 19.1888C37.7472 19.1888 37.96 19.0952 38.1112 18.9312C38.2648 18.7648 38.3408 18.5416 38.3208 18.316C37.5176 9.48161 30.5232 2.48481 21.688 1.68001C21.464 1.66241 21.2384 1.73521 21.072 1.88961C20.9056 2.04321 20.8128 2.26001 20.8152 2.48641C20.9544 14.2272 22.5032 19.0248 37.5152 19.1888ZM37.5152 20.8112C22.5032 20.9752 20.9552 25.7728 20.816 37.5136C20.8136 37.74 20.9064 37.9568 21.0728 38.1104C21.2216 38.2472 21.416 38.3232 21.616 38.3232C21.64 38.3232 21.6648 38.3224 21.6888 38.32C30.524 37.5152 37.5184 30.5192 38.3208 21.684C38.3408 21.4584 38.2656 21.2352 38.1112 21.0688C37.9568 20.9024 37.7416 20.82 37.5152 20.8112ZM18.2584 1.68401C9.4512 2.51201 2.4792 9.50721 1.68 18.3176C1.66 18.5432 1.7352 18.7664 1.8896 18.9328C2.0408 19.0968 2.2544 19.1896 2.4768 19.1896C2.48 19.1896 2.4832 19.1896 2.4864 19.1896C17.4488 19.0176 18.9936 14.2224 19.1344 2.48961C19.1368 2.26321 19.0432 2.04561 18.8768 1.89201C18.7088 1.73841 18.484 1.66321 18.2584 1.68401ZM2.4856 20.8104C2.2368 20.7824 2.0416 20.9008 1.8888 21.0672C1.7352 21.2336 1.6592 21.4568 1.6792 21.6824C2.4784 30.4928 9.4512 37.488 18.2584 38.316C18.2832 38.3184 18.3088 38.3192 18.3336 38.3192C18.5336 38.3192 18.7272 38.244 18.876 38.1072C19.0424 37.9536 19.136 37.736 19.1336 37.5096C18.9928 25.7776 17.4488 20.9824 2.4856 20.8104Z" fill="#A78B73"/>
</svg>
