<svg width="40" height="40" viewBox="0 0 40 40" fill="none" xmlns="http://www.w3.org/2000/svg">
<circle cx="20" cy="20" r="20" fill="#A78B73"/>
<g clip-path="url(#clip0_2_9435)">
<path d="M19.6895 20.4835C23.9659 20.4821 27.4299 17.0141 27.4285 12.739C27.4271 8.46255 23.959 4.99862 19.684 5C15.4089 5.00138 11.9436 8.46944 11.945 12.7445C11.9505 17.0182 15.4158 20.4808 19.6895 20.4835ZM19.6895 9.53856C21.4608 9.53856 22.8968 10.9746 22.8968 12.7459C22.8968 14.5172 21.4608 15.9519 19.6895 15.9519C17.9182 15.9519 16.4821 14.5158 16.4821 12.7445C16.4849 10.9746 17.9196 9.53994 19.6895 9.53856ZM22.8196 26.8002C24.4129 26.4388 25.9331 25.8084 27.3167 24.9379C28.3707 24.2578 28.6742 22.8535 27.9941 21.7996C27.325 20.7622 25.9483 20.449 24.8971 21.096C21.7091 23.0894 17.6616 23.0894 14.4736 21.096C13.4155 20.4325 12.0181 20.7498 11.3518 21.8065C10.6827 22.8645 10.9972 24.2661 12.0567 24.9352C12.0581 24.9352 12.0595 24.9365 12.0595 24.9365C13.4417 25.8056 14.9619 26.4361 16.5539 26.7989L12.225 31.1277C11.3628 32.0382 11.4028 33.4757 12.3147 34.3378C13.1906 35.1655 14.5591 35.1655 15.4351 34.3378L19.6867 30.0835L23.9411 34.3378C24.8267 35.2221 26.26 35.2221 27.1457 34.3378C28.0299 33.4522 28.0299 32.0189 27.1457 31.1333L22.8196 26.8002Z" fill="#F7F7F9"/>
</g>
<defs>
<clipPath id="clip0_2_9435">
<rect width="17.3569" height="30" fill="white" transform="translate(11 5)"/>
</clipPath>
</defs>
</svg>
