<svg width="67" height="70" viewBox="0 0 67 70" fill="none" xmlns="http://www.w3.org/2000/svg">
<g id="&#208;&#161;&#208;&#187;&#208;&#190;&#208;&#185;_33">
<path id="Vector" d="M66.9999 69.9995C63.057 69.8506 59.9529 68.8347 57.5293 67.4018C53.3476 64.9412 51.1538 61.2413 50.0494 58.5751C49.2525 56.6477 49.0197 55.2595 49.0197 55.2595H25.5923C27.407 50.1059 32.2841 46.6562 37.7582 46.6562H55.1235C56.9532 46.6562 58.5918 47.7883 59.2395 49.4952L66.9999 69.9995Z" fill="#A78B73"/>
<path id="Vector_2" d="M54.5207 34.8421H48.8109C47.8199 34.8421 46.8588 34.6842 45.9515 34.3804H45.9455L45.8947 34.3655C43.6621 33.6297 41.8892 31.9168 41.0773 29.7153L39.3104 24.934L29.8278 0H38.3433C40.17 0 41.8086 1.12903 42.4563 2.83301L50.8614 24.934L54.5207 34.8421Z" fill="#A78B73"/>
<path id="Vector_3" d="M29.0477 0C27.224 0 25.5884 1.12605 24.9407 2.82705L16.5774 24.8238L12.8822 34.8421L8.86176 45.7541H8.8349L3.36084 60.2141L0 69.0974C0.182071 69.0914 0.364142 69.0854 0.540243 69.0706C13.6523 67.7419 17.9802 54.3574 17.9802 54.3574L21.159 45.7541L26.842 29.6646L27.5344 27.7045L31.0535 17.7309L33.0772 11.9129L33.2921 11.2933L29.0477 0Z" fill="#A78B73"/>
</g>
</svg>
