<svg width="40" height="38" viewBox="0 0 40 38" fill="none" xmlns="http://www.w3.org/2000/svg">
<path d="M20 33C17.2311 33 14.5243 32.1789 12.222 30.6406C9.91973 29.1022 8.12532 26.9157 7.06569 24.3576C6.00607 21.7994 5.72882 18.9845 6.26901 16.2687C6.80921 13.553 8.14258 11.0584 10.1005 9.10051C12.0584 7.14258 14.553 5.80921 17.2687 5.26901C19.9845 4.72882 22.7994 5.00607 25.3576 6.06569C27.9157 7.12532 30.1022 8.91973 31.6406 11.222C33.1789 13.5243 34 16.2311 34 19C34 22.713 32.525 26.274 29.8995 28.8995C27.274 31.525 23.713 33 20 33ZM20 7.00001C17.6266 7.00001 15.3066 7.70379 13.3332 9.02237C11.3598 10.3409 9.8217 12.2151 8.91345 14.4078C8.0052 16.6005 7.76756 19.0133 8.23058 21.3411C8.69361 23.6689 9.83649 25.8071 11.5147 27.4853C13.193 29.1635 15.3312 30.3064 17.6589 30.7694C19.9867 31.2325 22.3995 30.9948 24.5922 30.0866C26.7849 29.1783 28.6591 27.6402 29.9776 25.6668C31.2962 23.6935 32 21.3734 32 19C32 15.8174 30.7357 12.7652 28.4853 10.5147C26.2348 8.26429 23.1826 7.00001 20 7.00001Z" fill="#343536"/>
<path d="M24.59 25L19 19.41V10H21V18.58L26 23.59L24.59 25Z" fill="#A78B73"/>
</svg>
