<svg width="30" height="30" viewBox="0 0 30 30" fill="none" xmlns="http://www.w3.org/2000/svg">
<g id="&#208;&#152;&#208;&#183;&#208;&#177;&#209;&#128;&#208;&#176;&#208;&#189;&#208;&#189;&#208;&#190;&#208;&#181;">
<path id="Vector" d="M15.5017 6.57304C16.7013 5.52183 18.2665 4.96032 19.8759 5.00391C21.4852 5.04749 23.0164 5.69285 24.1547 6.80737C25.2921 7.92065 25.9513 9.41766 25.9974 10.9915C26.0435 12.5654 25.4728 14.0969 24.4025 15.2721L15.4996 24L6.59891 15.2721C5.52727 14.0963 4.95609 12.5635 5.00264 10.9883C5.04918 9.4132 5.70992 7.91526 6.84919 6.80206C7.98847 5.68885 9.51985 5.04484 11.1289 5.00225C12.738 4.95967 14.3027 5.52172 15.5017 6.57304ZM22.6681 8.25962C21.9097 7.51769 20.8899 7.08804 19.8182 7.0588C18.7464 7.02955 17.7038 7.40295 16.9044 8.10237L15.5028 9.33364L14.1002 8.1034C13.304 7.40645 12.2666 7.03266 11.1988 7.05807C10.1311 7.08348 9.11344 7.50619 8.35283 8.24019C7.59223 8.97418 7.14588 9.96431 7.1046 11.0091C7.06333 12.0539 7.43024 13.0748 8.13066 13.8641L15.5007 21.0904L22.8707 13.8651C23.5682 13.0793 23.9352 12.0637 23.8976 11.0233C23.86 9.98289 23.4206 8.99522 22.6681 8.25962Z" fill="#969696"/>
</g>
</svg>
