<svg width="290" height="57" viewBox="0 0 290 57" fill="none" xmlns="http://www.w3.org/2000/svg">
<path d="M53.4271 56.3204C50.283 56.2014 47.8077 55.3898 45.875 54.2449C42.5405 52.2789 40.7911 49.3228 39.9104 47.1926C39.2749 45.6527 39.0893 44.5436 39.0893 44.5436H20.4077C21.8548 40.4259 25.7439 37.6698 30.1091 37.6698H43.9566C45.4156 37.6698 46.7223 38.5742 47.2388 39.938L53.4271 56.3204Z" fill="#FBFBFB"/>
<path d="M43.4759 28.2306H38.9227C38.1325 28.2306 37.3661 28.1045 36.6426 27.8617H36.6378L36.5973 27.8498C34.817 27.2619 33.4032 25.8934 32.7558 24.1345L31.3468 20.3144L23.7852 0.392761H30.5756C32.0323 0.392761 33.339 1.29483 33.8554 2.65626L40.5579 20.3144L43.4759 28.2306Z" fill="#FBFBFB"/>
<path d="M23.1633 0.392578C21.7091 0.392578 20.4048 1.29226 19.8883 2.65131L13.2192 20.2261L10.2726 28.2305L7.06658 36.9488H7.04516L2.68002 48.5019L0 55.5995C0.145187 55.5947 0.290375 55.5899 0.430802 55.578C10.8867 54.5165 14.3378 43.8226 14.3378 43.8226L16.8727 36.9488L21.4044 24.0938L21.9566 22.5277L24.7628 14.5591L26.3765 9.91068L26.5479 9.41561L23.1633 0.392578Z" fill="#FBFBFB"/>
<path d="M287.277 56.4367C286.6 56.4367 285.971 56.087 285.613 55.5118L266.311 24.4339C266.016 23.9587 265.859 23.4104 265.859 22.851V22.5432C265.859 20.8863 267.202 19.5432 268.859 19.5432H269.493C270.532 19.5432 271.497 20.0809 272.044 20.9644L288.785 48.0163C289.079 48.4905 289.234 49.0372 289.234 49.595V54.4788C289.234 55.5601 288.358 56.4367 287.277 56.4367V56.4367Z" fill="#FBFBFB"/>
<path d="M265.859 56.4367V29.4517H266.279L272.268 39.0968L272.299 41.1043C271.967 49.7483 270.704 53.2843 265.859 56.4367Z" fill="#FBFBFB"/>
<path d="M288.814 42.9442L282.826 33.2992C283.299 25.7427 284.607 22.6282 289.234 19.5432V42.9442H288.814Z" fill="#FBFBFB"/>
<path d="M265.859 29.4517H266.279L272.268 39.0968L272.299 35.3547L265.859 25.2928V29.4517Z" fill="#FBFBFB"/>
<path d="M288.814 42.9442L282.826 33.2992V36.7921L289.234 47.3331V42.9442H288.814Z" fill="#FBFBFB"/>
<path d="M226.049 52.0832V54.2416C226.049 55.765 227.303 57.0414 228.782 56.674C229.27 56.5528 229.746 56.3976 230.212 56.2087C231.547 55.6811 232.706 54.9425 233.69 53.9929C234.673 53.0081 235.446 51.8475 236.008 50.511C236.57 49.1745 236.851 47.6973 236.851 46.0795V29.9361C236.851 28.6348 236.57 27.3687 236.008 26.1377C235.481 24.8715 234.726 23.7461 233.742 22.7613C232.759 21.7765 231.6 21.0027 230.265 20.44C229.783 20.2185 229.287 20.038 228.776 19.8985C227.307 19.4971 226.049 20.7781 226.049 22.3015V24.1354C226.049 25.1538 226.918 25.9176 227.841 26.3487C228.403 26.5949 228.86 26.9642 229.211 27.4566C229.597 27.9138 229.896 28.4238 230.107 28.9865C230.317 29.5492 230.423 30.1471 230.423 30.7802V45.8685C230.423 46.5719 230.282 47.205 230.001 47.7677C229.755 48.3304 229.404 48.8228 228.947 49.2449C228.526 49.6669 228.052 50.001 227.525 50.2472C226.753 50.578 226.049 51.244 226.049 52.0832Z" fill="#FBFBFB"/>
<path d="M219.147 56.2087C219.554 56.374 219.963 56.5135 220.374 56.627C221.842 57.0328 223.099 55.765 223.099 54.2416V52.1338C223.099 51.2667 222.375 50.5696 221.57 50.2472C221.079 50.001 220.622 49.6845 220.201 49.2976C219.779 48.8756 219.428 48.3832 219.147 47.8204C218.901 47.2225 218.778 46.5719 218.778 45.8685V30.7802C218.778 30.1471 218.883 29.5492 219.094 28.9865C219.305 28.4238 219.586 27.9138 219.937 27.4566C220.324 26.9994 220.78 26.6476 221.307 26.4014C222.25 25.9293 223.151 25.1246 223.151 24.0701V22.3015C223.151 20.7781 221.895 19.5007 220.423 19.8932C219.897 20.0334 219.384 20.2157 218.883 20.44C217.584 21.0027 216.442 21.7765 215.458 22.7613C214.475 23.7461 213.702 24.8715 213.14 26.1377C212.613 27.3687 212.349 28.6348 212.349 29.9361V46.0795C212.349 47.627 212.648 49.069 213.245 50.4055C213.877 51.742 214.703 52.9026 215.722 53.8874C216.741 54.8721 217.882 55.6459 219.147 56.2087Z" fill="#FBFBFB"/>
<path d="M140.403 40.7833H142.021C142.433 50.1537 143.914 53.4568 148.419 56.4367V23.5418C148.419 21.3334 146.629 19.5432 144.421 19.5432C143.096 19.5432 142.021 20.6173 142.021 21.9423V34.9858H140.403C139.298 34.9858 138.403 35.8812 138.403 36.9858V38.7833C138.403 39.8879 139.298 40.7833 140.403 40.7833Z" fill="#FBFBFB"/>
<path d="M125.607 23.5418V56.4367C130.481 53.2779 132.005 50.002 132.005 40.7833H133.624C134.728 40.7833 135.624 39.8879 135.624 38.7833V36.9858C135.624 35.8812 134.728 34.9858 133.624 34.9858H132.005V21.9424C132.005 20.6173 130.931 19.5432 129.606 19.5432C127.397 19.5432 125.607 21.3334 125.607 23.5418Z" fill="#FBFBFB"/>
<path d="M73.7871 56.4367V21.9194C73.7871 20.607 74.851 19.5432 76.1634 19.5432V19.5432L80.1123 25.5515V41.0468C80.1236 51.0575 78.0624 53.3371 73.7871 56.4367Z" fill="#FBFBFB"/>
<path d="M89.9629 47.0552C89.8592 45.6498 89.6346 44.5078 89.2889 43.6294C88.9779 42.751 88.4767 42.1009 87.7854 41.6793C87.0942 41.2577 86.1437 41.0468 84.9339 41.0468H82.8082V35.302H84.9339C86.6276 35.302 87.8546 34.8452 88.6149 33.9317C89.4099 32.983 89.8074 31.8234 89.8074 30.4531C89.8074 28.872 89.3408 27.6597 88.4076 26.8165C87.5089 25.9732 86.2646 25.5515 84.6747 25.5515H82.8082L80.6783 25.5324L76.6386 19.5432H82.8082H85.2968C87.4398 19.5432 89.2889 19.9648 90.8443 20.8081C92.3997 21.6162 93.5921 22.7757 94.4217 24.2866C95.2858 25.7975 95.7178 27.6246 95.7178 29.7679C95.7178 31.7005 95.3895 33.3519 94.7327 34.7222C94.1106 36.0926 93.2638 37.1994 92.1923 38.0426C93.2638 38.6751 94.0933 39.6589 94.6809 40.9941C95.2685 42.2942 95.6141 43.6294 95.7178 44.9997L96.5992 56.4367C91.6678 54.333 90.1033 52.3536 89.9629 47.0552Z" fill="#FBFBFB"/>
<path d="M177.427 32.959V54.041C177.427 55.3641 178.494 56.4367 179.81 56.4367H183.623V39.6669L177.427 32.959Z" fill="#FBFBFB"/>
<path d="M177.427 19.5432V31.5216L183.623 38.2295V22.418C183.623 20.8303 182.343 19.5432 180.763 19.5432H177.427Z" fill="#FBFBFB"/>
<path d="M72.6172 7.78643L76.3436 0H77.1937L80.9202 7.78643H80.0119L76.5882 0.47831H76.9375L73.5139 7.78643H72.6172ZM74.0845 5.70634L74.3407 5.03893H79.0803L79.3365 5.70634H74.0845ZM85.4402 7.84205C84.9123 7.84205 84.4348 7.7271 84.0079 7.49722C83.5809 7.25992 83.2393 6.92251 82.9831 6.48498C82.7346 6.04005 82.6104 5.4987 82.6104 4.86096C82.6104 4.22321 82.7346 3.68558 82.9831 3.24805C83.2315 2.80312 83.5692 2.4657 83.9962 2.23582C84.4232 2.00593 84.9045 1.89099 85.4402 1.89099C86.0225 1.89099 86.5426 2.01706 87.0007 2.26919C87.4665 2.51391 87.8314 2.86244 88.0953 3.3148C88.3593 3.75973 88.4912 4.27512 88.4912 4.86096C88.4912 5.45421 88.3593 5.9733 88.0953 6.41824C87.8314 6.86318 87.4665 7.21172 87.0007 7.46385C86.5426 7.71598 86.0225 7.84205 85.4402 7.84205ZM82.2844 9.94438V1.94661H83.0762V3.70412L82.9947 4.87208L83.1112 6.05117V9.94438H82.2844ZM85.382 7.14127C85.8167 7.14127 86.2049 7.04857 86.5465 6.86318C86.8881 6.67038 87.1598 6.40341 87.3617 6.06229C87.5635 5.71376 87.6644 5.31331 87.6644 4.86096C87.6644 4.4086 87.5635 4.01187 87.3617 3.67075C87.1598 3.32963 86.8881 3.06266 86.5465 2.86986C86.2049 2.67705 85.8167 2.58065 85.382 2.58065C84.9472 2.58065 84.5552 2.67705 84.2058 2.86986C83.8642 3.06266 83.5925 3.32963 83.3907 3.67075C83.1966 4.01187 83.0995 4.4086 83.0995 4.86096C83.0995 5.31331 83.1966 5.71376 83.3907 6.06229C83.5925 6.40341 83.8642 6.67038 84.2058 6.86318C84.5552 7.04857 84.9472 7.14127 85.382 7.14127ZM89.0501 7.78643L91.6353 4.58287L91.6237 4.97219L89.1666 1.94661H90.0982L92.1128 4.44939L91.7634 4.43827L93.7781 1.94661H94.6864L92.206 5.00556L92.2176 4.58287L94.8261 7.78643H93.8829L91.7518 5.1168L92.0779 5.16129L89.9817 7.78643H89.0501ZM96.1812 7.78643V1.94661H97.008V6.5851L101.096 1.94661H101.829V7.78643H101.002V3.13682L96.9265 7.78643H96.1812ZM105.363 7.78643V2.42492L105.573 2.63626H103.046V1.94661H108.507V2.63626H105.98L106.19 2.42492V7.78643H105.363ZM112.039 7.84205C111.402 7.84205 110.843 7.71598 110.362 7.46385C109.88 7.2043 109.504 6.85206 109.232 6.40712C108.96 5.95477 108.825 5.43938 108.825 4.86096C108.825 4.28254 108.953 3.77086 109.209 3.32592C109.473 2.88098 109.83 2.53244 110.28 2.28031C110.738 2.02076 111.251 1.89099 111.817 1.89099C112.392 1.89099 112.9 2.01706 113.343 2.26919C113.793 2.51391 114.146 2.86244 114.403 3.3148C114.659 3.75973 114.787 4.27512 114.787 4.86096C114.787 4.89804 114.783 4.93882 114.775 4.98332C114.775 5.02039 114.775 5.06118 114.775 5.10567H109.453V4.51613H114.333L114.007 4.74972C114.007 4.32703 113.91 3.95254 113.716 3.62625C113.529 3.29255 113.273 3.033 112.947 2.84761C112.621 2.66222 112.244 2.56952 111.817 2.56952C111.398 2.56952 111.022 2.66222 110.688 2.84761C110.354 3.033 110.094 3.29255 109.908 3.62625C109.721 3.95996 109.628 4.34186 109.628 4.77197V4.89433C109.628 5.33927 109.729 5.7323 109.931 6.07342C110.141 6.40712 110.428 6.67038 110.793 6.86318C111.165 7.04857 111.588 7.14127 112.062 7.14127C112.435 7.14127 112.78 7.07824 113.098 6.95217C113.424 6.8261 113.704 6.6333 113.937 6.37375L114.403 6.88543C114.131 7.19689 113.789 7.43419 113.378 7.59733C112.974 7.76047 112.528 7.84205 112.039 7.84205ZM121.101 7.78643L118.585 4.89433L119.272 4.50501L122.079 7.78643H121.101ZM116.617 7.78643V1.94661H117.444V7.78643H116.617ZM117.188 5.18354V4.50501H119.156V5.18354H117.188ZM119.342 4.94995L118.574 4.83871L121.007 1.94661H121.904L119.342 4.94995ZM124.423 7.78643V2.42492L124.633 2.63626H122.106V1.94661H127.567V2.63626H125.04L125.25 2.42492V7.78643H124.423ZM128.868 10C128.58 10 128.305 9.95551 128.041 9.86652C127.785 9.77753 127.563 9.64405 127.377 9.46607L127.761 8.87653C127.916 9.01743 128.083 9.12495 128.262 9.19911C128.448 9.28068 128.654 9.32147 128.879 9.32147C129.151 9.32147 129.384 9.24731 129.578 9.099C129.78 8.9581 129.97 8.70597 130.148 8.3426L130.544 7.4861L130.638 7.36374L133.153 1.94661H133.968L130.905 8.48721C130.735 8.86541 130.544 9.16574 130.335 9.38821C130.133 9.61068 129.912 9.76641 129.671 9.8554C129.43 9.9518 129.163 10 128.868 10ZM130.498 7.95328L127.68 1.94661H128.541L131.034 7.30812L130.498 7.95328ZM138.412 7.84205C137.884 7.84205 137.407 7.7271 136.98 7.49722C136.553 7.25992 136.211 6.92251 135.955 6.48498C135.707 6.04005 135.582 5.4987 135.582 4.86096C135.582 4.22321 135.707 3.68558 135.955 3.24805C136.203 2.80312 136.541 2.4657 136.968 2.23582C137.395 2.00593 137.876 1.89099 138.412 1.89099C138.994 1.89099 139.515 2.01706 139.973 2.26919C140.438 2.51391 140.803 2.86244 141.067 3.3148C141.331 3.75973 141.463 4.27512 141.463 4.86096C141.463 5.45421 141.331 5.9733 141.067 6.41824C140.803 6.86318 140.438 7.21172 139.973 7.46385C139.515 7.71598 138.994 7.84205 138.412 7.84205ZM135.256 9.94438V1.94661H136.048V3.70412L135.967 4.87208L136.083 6.05117V9.94438H135.256ZM138.354 7.14127C138.789 7.14127 139.177 7.04857 139.518 6.86318C139.86 6.67038 140.132 6.40341 140.334 6.06229C140.535 5.71376 140.636 5.31331 140.636 4.86096C140.636 4.4086 140.535 4.01187 140.334 3.67075C140.132 3.32963 139.86 3.06266 139.518 2.86986C139.177 2.67705 138.789 2.58065 138.354 2.58065C137.919 2.58065 137.527 2.67705 137.178 2.86986C136.836 3.06266 136.564 3.32963 136.363 3.67075C136.168 4.01187 136.071 4.4086 136.071 4.86096C136.071 5.31331 136.168 5.71376 136.363 6.06229C136.564 6.40341 136.836 6.67038 137.178 6.86318C137.527 7.04857 137.919 7.14127 138.354 7.14127ZM143.24 7.78643V1.94661H144.066V4.52725H147.921V1.94661H148.748V7.78643H147.921V5.20579H144.066V7.78643H143.24ZM153.613 7.84205C153.023 7.84205 152.491 7.71598 152.018 7.46385C151.552 7.2043 151.183 6.85206 150.911 6.40712C150.64 5.95477 150.504 5.43938 150.504 4.86096C150.504 4.27512 150.64 3.75973 150.911 3.3148C151.183 2.86986 151.552 2.52132 152.018 2.26919C152.484 2.01706 153.015 1.89099 153.613 1.89099C154.219 1.89099 154.754 2.01706 155.22 2.26919C155.694 2.52132 156.062 2.86986 156.326 3.3148C156.598 3.75973 156.734 4.27512 156.734 4.86096C156.734 5.43938 156.598 5.95477 156.326 6.40712C156.062 6.85206 155.694 7.2043 155.22 7.46385C154.747 7.71598 154.211 7.84205 153.613 7.84205ZM153.613 7.14127C154.056 7.14127 154.448 7.04857 154.789 6.86318C155.131 6.67038 155.399 6.40341 155.593 6.06229C155.795 5.71376 155.896 5.31331 155.896 4.86096C155.896 4.40119 155.795 4.00074 155.593 3.65962C155.399 3.3185 155.131 3.05525 154.789 2.86986C154.448 2.67705 154.06 2.58065 153.625 2.58065C153.19 2.58065 152.802 2.67705 152.46 2.86986C152.119 3.05525 151.847 3.3185 151.645 3.65962C151.443 4.00074 151.342 4.40119 151.342 4.86096C151.342 5.31331 151.443 5.71376 151.645 6.06229C151.847 6.40341 152.119 6.67038 152.46 6.86318C152.802 7.04857 153.186 7.14127 153.613 7.14127ZM158.137 5.1168V4.42714H161.188V5.1168H158.137ZM165.737 7.84205C165.131 7.84205 164.588 7.71598 164.107 7.46385C163.633 7.2043 163.26 6.85206 162.989 6.40712C162.717 5.95477 162.581 5.43938 162.581 4.86096C162.581 4.27512 162.717 3.75973 162.989 3.3148C163.26 2.86986 163.633 2.52132 164.107 2.26919C164.588 2.01706 165.131 1.89099 165.737 1.89099C166.257 1.89099 166.727 1.98739 167.146 2.1802C167.565 2.37301 167.895 2.66222 168.136 3.04783L167.519 3.44828C167.309 3.15165 167.049 2.93289 166.739 2.79199C166.428 2.65109 166.09 2.58065 165.725 2.58065C165.291 2.58065 164.899 2.67705 164.549 2.86986C164.2 3.05525 163.924 3.3185 163.722 3.65962C163.521 4.00074 163.42 4.40119 163.42 4.86096C163.42 5.32073 163.521 5.72117 163.722 6.06229C163.924 6.40341 164.2 6.67038 164.549 6.86318C164.899 7.04857 165.291 7.14127 165.725 7.14127C166.09 7.14127 166.428 7.07082 166.739 6.92992C167.049 6.78903 167.309 6.57397 167.519 6.28476L168.136 6.68521C167.895 7.0634 167.565 7.35261 167.146 7.55284C166.727 7.74564 166.257 7.84205 165.737 7.84205ZM170.788 7.78643V2.42492L170.997 2.63626H168.47V1.94661H173.932V2.63626H171.405L171.615 2.42492V7.78643H170.788ZM178.283 7.84205C177.756 7.84205 177.278 7.7271 176.851 7.49722C176.424 7.25992 176.083 6.92251 175.826 6.48498C175.578 6.04005 175.454 5.4987 175.454 4.86096C175.454 4.22321 175.578 3.68558 175.826 3.24805C176.075 2.80312 176.412 2.4657 176.839 2.23582C177.266 2.00593 177.748 1.89099 178.283 1.89099C178.866 1.89099 179.386 2.01706 179.844 2.26919C180.31 2.51391 180.675 2.86244 180.939 3.3148C181.202 3.75973 181.334 4.27512 181.334 4.86096C181.334 5.45421 181.202 5.9733 180.939 6.41824C180.675 6.86318 180.31 7.21172 179.844 7.46385C179.386 7.71598 178.866 7.84205 178.283 7.84205ZM175.128 9.94438V1.94661H175.919V3.70412L175.838 4.87208L175.954 6.05117V9.94438H175.128ZM178.225 7.14127C178.66 7.14127 179.048 7.04857 179.39 6.86318C179.731 6.67038 180.003 6.40341 180.205 6.06229C180.407 5.71376 180.508 5.31331 180.508 4.86096C180.508 4.4086 180.407 4.01187 180.205 3.67075C180.003 3.32963 179.731 3.06266 179.39 2.86986C179.048 2.67705 178.66 2.58065 178.225 2.58065C177.79 2.58065 177.398 2.67705 177.049 2.86986C176.707 3.06266 176.436 3.32963 176.234 3.67075C176.04 4.01187 175.943 4.4086 175.943 4.86096C175.943 5.31331 176.04 5.71376 176.234 6.06229C176.436 6.40341 176.707 6.67038 177.049 6.86318C177.398 7.04857 177.79 7.14127 178.225 7.14127ZM185.626 7.84205C185.036 7.84205 184.504 7.71598 184.03 7.46385C183.565 7.2043 183.196 6.85206 182.924 6.40712C182.652 5.95477 182.516 5.43938 182.516 4.86096C182.516 4.27512 182.652 3.75973 182.924 3.3148C183.196 2.86986 183.565 2.52132 184.03 2.26919C184.496 2.01706 185.028 1.89099 185.626 1.89099C186.231 1.89099 186.767 2.01706 187.233 2.26919C187.706 2.52132 188.075 2.86986 188.339 3.3148C188.611 3.75973 188.747 4.27512 188.747 4.86096C188.747 5.43938 188.611 5.95477 188.339 6.40712C188.075 6.85206 187.706 7.2043 187.233 7.46385C186.759 7.71598 186.224 7.84205 185.626 7.84205ZM185.626 7.14127C186.068 7.14127 186.46 7.04857 186.802 6.86318C187.143 6.67038 187.411 6.40341 187.605 6.06229C187.807 5.71376 187.908 5.31331 187.908 4.86096C187.908 4.40119 187.807 4.00074 187.605 3.65962C187.411 3.3185 187.143 3.05525 186.802 2.86986C186.46 2.67705 186.072 2.58065 185.637 2.58065C185.203 2.58065 184.814 2.67705 184.473 2.86986C184.131 3.05525 183.86 3.3185 183.658 3.65962C183.456 4.00074 183.355 4.40119 183.355 4.86096C183.355 5.31331 183.456 5.71376 183.658 6.06229C183.86 6.40341 184.131 6.67038 184.473 6.86318C184.814 7.04857 185.199 7.14127 185.626 7.14127ZM190.514 7.78643V1.94661H191.341V6.5851L195.428 1.94661H196.162V7.78643H195.335V3.13682L191.259 7.78643H190.514ZM199.696 7.78643V2.42492L199.906 2.63626H197.379V1.94661H202.84V2.63626H200.313L200.523 2.42492V7.78643H199.696ZM206.372 7.84205C205.735 7.84205 205.176 7.71598 204.695 7.46385C204.213 7.2043 203.837 6.85206 203.565 6.40712C203.293 5.95477 203.158 5.43938 203.158 4.86096C203.158 4.28254 203.286 3.77086 203.542 3.32592C203.806 2.88098 204.163 2.53244 204.613 2.28031C205.071 2.02076 205.584 1.89099 206.15 1.89099C206.725 1.89099 207.233 2.01706 207.676 2.26919C208.126 2.51391 208.479 2.86244 208.736 3.3148C208.992 3.75973 209.12 4.27512 209.12 4.86096C209.12 4.89804 209.116 4.93882 209.108 4.98332C209.108 5.02039 209.108 5.06118 209.108 5.10567H203.786V4.51613H208.666L208.34 4.74972C208.34 4.32703 208.243 3.95254 208.049 3.62625C207.862 3.29255 207.606 3.033 207.28 2.84761C206.954 2.66222 206.577 2.56952 206.15 2.56952C205.731 2.56952 205.355 2.66222 205.021 2.84761C204.687 3.033 204.427 3.29255 204.241 3.62625C204.054 3.95996 203.961 4.34186 203.961 4.77197V4.89433C203.961 5.33927 204.062 5.7323 204.264 6.07342C204.473 6.40712 204.761 6.67038 205.126 6.86318C205.498 7.04857 205.921 7.14127 206.395 7.14127C206.768 7.14127 207.113 7.07824 207.431 6.95217C207.757 6.8261 208.037 6.6333 208.27 6.37375L208.736 6.88543C208.464 7.19689 208.122 7.43419 207.711 7.59733C207.307 7.76047 206.861 7.84205 206.372 7.84205ZM209.707 7.77531L209.765 7.09677C209.82 7.10419 209.87 7.11531 209.917 7.13015C209.971 7.13756 210.018 7.14127 210.056 7.14127C210.305 7.14127 210.503 7.05228 210.65 6.87431C210.806 6.69633 210.922 6.45903 211 6.1624C211.077 5.86578 211.132 5.53207 211.163 5.16129C211.194 4.78309 211.221 4.4049 211.244 4.0267L211.349 1.94661H215.832V7.78643H215.006V2.40267L215.215 2.63626H211.885L212.083 2.39155L211.989 4.08231C211.966 4.58658 211.923 5.0686 211.861 5.52837C211.807 5.98814 211.718 6.39229 211.594 6.74082C211.477 7.08936 211.314 7.36374 211.104 7.56396C210.895 7.75677 210.627 7.85317 210.301 7.85317C210.208 7.85317 210.111 7.84576 210.01 7.83092C209.917 7.81609 209.816 7.79755 209.707 7.77531ZM220.815 4.00445C221.583 4.01187 222.165 4.17501 222.561 4.49388C222.965 4.81276 223.167 5.27253 223.167 5.87319C223.167 6.49611 222.949 6.97442 222.515 7.30812C222.088 7.64183 221.467 7.80497 220.652 7.79755L218.183 7.78643V1.94661H219.01V3.9822L220.815 4.00445ZM220.605 7.19689C221.172 7.2043 221.599 7.09677 221.886 6.87431C222.181 6.64442 222.328 6.31072 222.328 5.87319C222.328 5.43567 222.185 5.1168 221.898 4.91657C221.61 4.70894 221.179 4.60141 220.605 4.59399L219.01 4.57175V7.17464L220.605 7.19689ZM224.745 7.78643V1.94661H225.572V4.52725H229.426V1.94661H230.253V7.78643H229.426V5.20579H225.572V7.78643H224.745ZM236.399 7.78643V6.49611L236.364 6.28476V4.12681C236.364 3.62996 236.216 3.24805 235.921 2.98109C235.634 2.71413 235.203 2.58065 234.629 2.58065C234.233 2.58065 233.856 2.64368 233.499 2.76975C233.142 2.89581 232.839 3.06266 232.591 3.2703L232.218 2.68076C232.529 2.42863 232.901 2.23582 233.336 2.10234C233.771 1.96144 234.229 1.89099 234.71 1.89099C235.502 1.89099 236.111 2.08009 236.538 2.45829C236.973 2.82907 237.191 3.39637 237.191 4.16018V7.78643H236.399ZM234.291 7.84205C233.833 7.84205 233.433 7.7716 233.091 7.6307C232.758 7.48239 232.501 7.28217 232.323 7.03003C232.144 6.77049 232.055 6.47386 232.055 6.14016C232.055 5.83612 232.129 5.56174 232.276 5.31702C232.432 5.06489 232.68 4.86467 233.022 4.71635C233.371 4.56062 233.837 4.48276 234.419 4.48276H236.527V5.0723H234.442C233.852 5.0723 233.441 5.17241 233.208 5.37264C232.983 5.57286 232.87 5.82128 232.87 6.11791C232.87 6.45161 233.006 6.71858 233.278 6.9188C233.55 7.11902 233.93 7.21913 234.419 7.21913C234.885 7.21913 235.285 7.11902 235.618 6.9188C235.96 6.71116 236.209 6.41454 236.364 6.02892L236.55 6.57397C236.395 6.95959 236.123 7.26733 235.735 7.49722C235.355 7.7271 234.873 7.84205 234.291 7.84205ZM243.339 7.78643V5.68409L243.491 5.85095H241.418C240.634 5.85095 240.02 5.6878 239.578 5.36151C239.135 5.03523 238.914 4.56062 238.914 3.93771C238.914 3.2703 239.151 2.77345 239.624 2.44716C240.098 2.11346 240.731 1.94661 241.523 1.94661H244.096V7.78643H243.339ZM238.867 7.78643L240.544 5.53949H241.406L239.764 7.78643H238.867ZM243.339 5.4505V2.40267L243.491 2.63626H241.546C240.979 2.63626 240.537 2.74008 240.218 2.94772C239.908 3.15536 239.753 3.49277 239.753 3.95996C239.753 4.82759 240.331 5.2614 241.488 5.2614H243.491L243.339 5.4505ZM249.501 7.78643V1.94661H253.833V2.63626H250.119L250.328 2.43604V7.78643H249.501ZM258.185 7.84205C257.657 7.84205 257.18 7.7271 256.753 7.49722C256.326 7.25992 255.984 6.92251 255.728 6.48498C255.479 6.04005 255.355 5.4987 255.355 4.86096C255.355 4.22321 255.479 3.68558 255.728 3.24805C255.976 2.80312 256.314 2.4657 256.741 2.23582C257.168 2.00593 257.649 1.89099 258.185 1.89099C258.767 1.89099 259.287 2.01706 259.745 2.26919C260.211 2.51391 260.576 2.86244 260.84 3.3148C261.104 3.75973 261.236 4.27512 261.236 4.86096C261.236 5.45421 261.104 5.9733 260.84 6.41824C260.576 6.86318 260.211 7.21172 259.745 7.46385C259.287 7.71598 258.767 7.84205 258.185 7.84205ZM255.029 9.94438V1.94661H255.821V3.70412L255.739 4.87208L255.856 6.05117V9.94438H255.029ZM258.127 7.14127C258.561 7.14127 258.95 7.04857 259.291 6.86318C259.633 6.67038 259.905 6.40341 260.106 6.06229C260.308 5.71376 260.409 5.31331 260.409 4.86096C260.409 4.4086 260.308 4.01187 260.106 3.67075C259.905 3.32963 259.633 3.06266 259.291 2.86986C258.95 2.67705 258.561 2.58065 258.127 2.58065C257.692 2.58065 257.3 2.67705 256.951 2.86986C256.609 3.06266 256.337 3.32963 256.135 3.67075C255.941 4.01187 255.844 4.4086 255.844 4.86096C255.844 5.31331 255.941 5.71376 256.135 6.06229C256.337 6.40341 256.609 6.67038 256.951 6.86318C257.3 7.04857 257.692 7.14127 258.127 7.14127ZM262.946 10C262.659 10 262.383 9.95551 262.119 9.86652C261.863 9.77753 261.642 9.64405 261.455 9.46607L261.84 8.87653C261.995 9.01743 262.162 9.12495 262.34 9.19911C262.527 9.28068 262.732 9.32147 262.957 9.32147C263.229 9.32147 263.462 9.24731 263.656 9.099C263.858 8.9581 264.048 8.70597 264.227 8.3426L264.623 7.4861L264.716 7.36374L267.231 1.94661H268.046L264.984 8.48721C264.813 8.86541 264.623 9.16574 264.413 9.38821C264.211 9.61068 263.99 9.76641 263.749 9.8554C263.509 9.9518 263.241 10 262.946 10ZM264.576 7.95328L261.758 1.94661H262.62L265.112 7.30812L264.576 7.95328ZM269.335 7.78643V1.94661H274.832V7.78643H274.005V2.42492L274.214 2.63626H269.952L270.162 2.42492V7.78643H269.335ZM277.182 7.78643V1.94661H282.679V7.78643H281.852V2.42492L282.061 2.63626H277.799L278.009 2.42492V7.78643H277.182ZM288.825 7.78643V6.49611L288.79 6.28476V4.12681C288.79 3.62996 288.643 3.24805 288.348 2.98109C288.061 2.71413 287.63 2.58065 287.055 2.58065C286.659 2.58065 286.283 2.64368 285.926 2.76975C285.569 2.89581 285.266 3.06266 285.017 3.2703L284.645 2.68076C284.955 2.42863 285.328 2.23582 285.763 2.10234C286.197 1.96144 286.655 1.89099 287.137 1.89099C287.929 1.89099 288.538 2.08009 288.965 2.45829C289.4 2.82907 289.617 3.39637 289.617 4.16018V7.78643H288.825ZM286.718 7.84205C286.259 7.84205 285.86 7.7716 285.518 7.6307C285.184 7.48239 284.928 7.28217 284.75 7.03003C284.571 6.77049 284.482 6.47386 284.482 6.14016C284.482 5.83612 284.555 5.56174 284.703 5.31702C284.858 5.06489 285.107 4.86467 285.448 4.71635C285.798 4.56062 286.263 4.48276 286.846 4.48276H288.953V5.0723H286.869C286.279 5.0723 285.867 5.17241 285.635 5.37264C285.409 5.57286 285.297 5.82128 285.297 6.11791C285.297 6.45161 285.433 6.71858 285.704 6.9188C285.976 7.11902 286.357 7.21913 286.846 7.21913C287.311 7.21913 287.711 7.11902 288.045 6.9188C288.387 6.71116 288.635 6.41454 288.79 6.02892L288.977 6.57397C288.821 6.95959 288.55 7.26733 288.162 7.49722C287.781 7.7271 287.3 7.84205 286.718 7.84205Z" fill="#FBFBFB"/>
</svg>
