<svg width="36" height="36" viewBox="0 0 36 36" fill="none" xmlns="http://www.w3.org/2000/svg">
<circle cx="18" cy="18" r="18" fill="#A78B73"/>
<path fill-rule="evenodd" clip-rule="evenodd" d="M18.035 26.1904H18.0315C16.6427 26.19 15.278 25.8432 14.0659 25.1852L9.66675 26.3337L10.844 22.0541C10.1178 20.8016 9.7357 19.3808 9.73632 17.9252C9.73814 13.3717 13.4608 9.66699 18.0349 9.66699C20.2548 9.66795 22.3384 10.528 23.9052 12.0891C25.4719 13.6501 26.3343 15.7251 26.3334 17.9318C26.3316 22.4843 22.6104 26.1886 18.035 26.1904ZM14.2701 23.6901L14.5219 23.8389C15.5809 24.4643 16.7949 24.7952 18.0325 24.7957H18.0353C21.837 24.7957 24.9311 21.7163 24.9326 17.9313C24.9333 16.0971 24.2166 14.3725 22.9144 13.075C21.6121 11.7775 19.8803 11.0626 18.038 11.062C14.2335 11.062 11.1393 14.141 11.1378 17.9257C11.1373 19.2228 11.5019 20.486 12.1923 21.5789L12.3563 21.8386L11.6596 24.3716L14.2701 23.6901ZM22.2157 19.8956C22.1639 19.8095 22.0257 19.7579 21.8184 19.6546C21.611 19.5513 20.5916 19.0521 20.4015 18.9832C20.2115 18.9144 20.0732 18.88 19.935 19.0865C19.7968 19.293 19.3994 19.7579 19.2784 19.8956C19.1574 20.0333 19.0365 20.0506 18.8292 19.9473C18.6219 19.844 17.9537 19.6261 17.1617 18.923C16.5453 18.3758 16.1292 17.7001 16.0082 17.4935C15.8873 17.2869 15.9953 17.1753 16.0991 17.0724C16.1924 16.9799 16.3065 16.8313 16.4102 16.7108C16.5138 16.5904 16.5484 16.5042 16.6175 16.3666C16.6866 16.2288 16.6521 16.1083 16.6002 16.005C16.5484 15.9017 16.1337 14.886 15.9609 14.4728C15.7926 14.0704 15.6217 14.1249 15.4944 14.1186C15.3736 14.1125 15.2352 14.1113 15.097 14.1113C14.9588 14.1113 14.7341 14.1629 14.544 14.3695C14.354 14.5761 13.8183 15.0754 13.8183 16.091C13.8183 17.1068 14.5613 18.088 14.665 18.2257C14.7687 18.3635 16.1271 20.4478 18.2072 21.3417C18.7019 21.5543 19.0881 21.6813 19.3892 21.7764C19.8859 21.9335 20.338 21.9113 20.6952 21.8581C21.0936 21.7989 21.922 21.359 22.0949 20.8769C22.2676 20.3948 22.2676 19.9817 22.2157 19.8956Z" fill="#F7F7F9"/>
</svg>
