<svg width="36" height="36" viewBox="0 0 36 36" fill="none" xmlns="http://www.w3.org/2000/svg">
<circle cx="18" cy="18" r="18" fill="#A78B73"/>
<path d="M18.0019 13.7272C15.6372 13.7272 13.7298 15.635 13.7298 18.0003C13.7298 20.3656 15.6372 22.2734 18.0019 22.2734C20.3667 22.2734 22.2741 20.3656 22.2741 18.0003C22.2741 15.635 20.3667 13.7272 18.0019 13.7272ZM18.0019 20.7784C16.4738 20.7784 15.2245 19.5326 15.2245 18.0003C15.2245 16.4681 16.4701 15.2222 18.0019 15.2222C19.5338 15.2222 20.7794 16.4681 20.7794 18.0003C20.7794 19.5326 19.5301 20.7784 18.0019 20.7784ZM23.4453 13.5524C23.4453 14.1065 22.9992 14.5491 22.4489 14.5491C21.8949 14.5491 21.4524 14.1028 21.4524 13.5524C21.4524 13.002 21.8986 12.5557 22.4489 12.5557C22.9992 12.5557 23.4453 13.002 23.4453 13.5524ZM26.2749 14.564C26.2116 13.2289 25.9068 12.0462 24.9289 11.0718C23.9547 10.0975 22.7723 9.79251 21.4375 9.72557C20.0618 9.64747 15.9384 9.64747 14.5626 9.72557C13.2315 9.78879 12.0492 10.0937 11.0713 11.0681C10.0934 12.0425 9.79224 13.2251 9.72531 14.5603C9.64723 15.9363 9.64723 20.0606 9.72531 21.4367C9.78852 22.7718 10.0934 23.9544 11.0713 24.9288C12.0492 25.9032 13.2278 26.2081 14.5626 26.2751C15.9384 26.3532 20.0618 26.3532 21.4375 26.2751C22.7723 26.2119 23.9547 25.9069 24.9289 24.9288C25.903 23.9544 26.2079 22.7718 26.2749 21.4367C26.3529 20.0606 26.3529 15.94 26.2749 14.564ZM24.4976 22.9131C24.2076 23.642 23.6461 24.2036 22.9136 24.4974C21.8168 24.9325 19.2141 24.8321 18.0019 24.8321C16.7898 24.8321 14.1834 24.9288 13.0902 24.4974C12.3615 24.2073 11.8 23.6458 11.5063 22.9131C11.0713 21.816 11.1717 19.2127 11.1717 18.0003C11.1717 16.7879 11.075 14.1809 11.5063 13.0875C11.7963 12.3586 12.3578 11.797 13.0902 11.5032C14.1871 11.0681 16.7898 11.1685 18.0019 11.1685C19.2141 11.1685 21.8205 11.0718 22.9136 11.5032C23.6424 11.7933 24.2038 12.3549 24.4976 13.0875C24.9326 14.1846 24.8322 16.7879 24.8322 18.0003C24.8322 19.2127 24.9326 21.8197 24.4976 22.9131Z" fill="#F7F7F9"/>
</svg>
