<svg width="36" height="36" viewBox="0 0 36 36" fill="none" xmlns="http://www.w3.org/2000/svg">
<circle cx="18" cy="18" r="18" fill="#A78B73"/>
<path fill-rule="evenodd" clip-rule="evenodd" d="M18.899 22.9614C18.899 22.9614 19.2299 22.9291 19.3994 22.7696C19.5545 22.6234 19.5491 22.3476 19.5491 22.3476C19.5491 22.3476 19.5285 21.0595 20.2109 20.8694C20.8834 20.6823 21.7469 22.115 22.6633 22.6659C23.3555 23.0824 23.881 22.9912 23.881 22.9912L26.3298 22.9614C26.3298 22.9614 27.6103 22.8922 27.0032 22.0097C26.953 21.9374 26.649 21.3566 25.183 20.1636C23.647 18.9149 23.8532 19.1169 25.7022 16.9565C26.8284 15.6409 27.2785 14.8378 27.1377 14.4943C27.0041 14.1658 26.1756 14.2531 26.1756 14.2531L23.4192 14.268C23.4192 14.268 23.2148 14.2436 23.0632 14.323C22.9153 14.4008 22.8193 14.5823 22.8193 14.5823C22.8193 14.5823 22.3835 15.6001 21.8016 16.4661C20.574 18.2925 20.0835 18.3891 19.8827 18.276C19.4155 18.0111 19.5321 17.2135 19.5321 16.6468C19.5321 14.8763 19.8387 14.1383 18.9358 13.9474C18.6363 13.8837 18.4157 13.842 17.649 13.835C16.6654 13.8263 15.8332 13.8381 15.3616 14.0401C15.0478 14.1745 14.8056 14.4747 14.9536 14.492C15.1356 14.5132 15.5481 14.5894 15.7669 14.8503C16.0494 15.1875 16.0395 15.9435 16.0395 15.9435C16.0395 15.9435 16.2018 18.0276 15.6602 18.2862C15.289 18.4638 14.7796 18.1015 13.6848 16.4441C13.1244 15.5953 12.7011 14.657 12.7011 14.657C12.7011 14.657 12.6195 14.4818 12.4734 14.3874C12.2967 14.2735 12.0501 14.2381 12.0501 14.2381L9.43093 14.2531C9.43093 14.2531 9.03728 14.2625 8.89292 14.4126C8.76469 14.5454 8.88305 14.8212 8.88305 14.8212C8.88305 14.8212 10.9338 19.0265 13.2562 21.146C15.3858 23.0887 17.8033 22.9614 17.8033 22.9614H18.899Z" fill="#F7F7F9"/>
</svg>
