<svg width="284" height="58" viewBox="0 0 284 58" fill="none" xmlns="http://www.w3.org/2000/svg">
<path d="M28.476 0.435791L34.8692 20.1122H55.5582L38.8204 32.2729L45.2137 51.9493L28.476 39.7886L11.7382 51.9493L18.1315 32.2729L1.39371 20.1122H22.0827L28.476 0.435791Z" fill="#A78B73"/>
<path d="M85.0482 0.435791L91.3562 20.1122H111.769L95.2547 32.2729L101.563 51.9493L85.0482 39.7886L68.5336 51.9493L74.8416 32.2729L58.327 20.1122H78.7402L85.0482 0.435791Z" fill="#A78B73"/>
<path d="M141.62 0.435791L148.014 20.1122H168.703L151.965 32.2729L158.358 51.9493L141.62 39.7886L124.883 51.9493L131.276 32.2729L114.538 20.1122H135.227L141.62 0.435791Z" fill="#A78B73"/>
<path d="M198.572 0.435791L204.966 20.1122H225.655L208.917 32.2729L215.31 51.9493L198.572 39.7886L181.835 51.9493L188.228 32.2729L171.49 20.1122H192.179L198.572 0.435791Z" fill="#A78B73"/>
<path d="M255.524 0.435791L261.917 20.1122H282.606L265.869 32.2729L272.262 51.9493L255.524 39.7886L238.786 51.9493L245.18 32.2729L228.442 20.1122H249.131L255.524 0.435791Z" fill="#A78B73"/>
<path d="M265.722 32.0706L265.575 32.1774L265.631 32.3501L271.786 51.2948L265.246 46.5432V20.3622H281.837L265.722 32.0706Z" fill="white" stroke="#A78B73" stroke-width="0.5"/>
</svg>
